<svg xmlns="http://www.w3.org/2000/svg" xmlns:xlink="http://www.w3.org/1999/xlink" width="500" zoomAndPan="magnify" viewBox="0 0 375 374.999991" height="500" preserveAspectRatio="xMidYMid meet" version="1.0"><defs><clipPath id="c7ca6a8044"><path d="M 55.910156 0 L 319.160156 0 L 319.160156 375 L 55.910156 375 Z M 55.910156 0 " clip-rule="nonzero"/></clipPath><clipPath id="866c854751"><path d="M 55.910156 0 L 319.160156 0 L 319.160156 375 L 55.910156 375 Z M 55.910156 0 " clip-rule="nonzero"/></clipPath></defs><g clip-path="url(#c7ca6a8044)"><path fill="#f9e6ce" d="M 318.347656 328.613281 L 317.9375 328.339844 C 317.515625 328.058594 317.109375 327.769531 316.710938 327.464844 C 316.683594 327.445312 316.664062 327.4375 316.636719 327.417969 L 316.679688 327.089844 C 316.515625 327.09375 316.351562 327.117188 316.1875 327.121094 C 314.902344 326.265625 313.914062 326.097656 312.769531 326.554688 C 311.609375 326.15625 311.917969 325.335938 311.414062 324.738281 C 310.539062 323.738281 309.21875 323.800781 308.128906 323.070312 C 307.53125 322.644531 306.875 322.289062 306.316406 321.8125 L 304.617188 320.410156 L 302.894531 319.042969 C 302.300781 318.609375 301.730469 318.152344 301.21875 317.628906 C 300.042969 316.535156 299.238281 315.140625 298.355469 313.863281 C 297.585938 312.480469 296.789062 311.175781 295.292969 310.257812 C 294.6875 309.175781 294.433594 307.894531 293.847656 306.804688 C 293.46875 306.097656 293.085938 305.386719 292.703125 304.675781 C 292.300781 303.980469 291.925781 303.261719 291.605469 302.511719 C 290.914062 301.046875 290.136719 299.644531 289.171875 298.351562 C 288.203125 296.960938 287.875 295.351562 287.507812 293.804688 C 287.140625 292.253906 286.839844 290.710938 286.210938 289.203125 C 285.429688 287.429688 284.738281 285.554688 283.890625 283.820312 C 283.070312 281.964844 282.546875 280.140625 282.714844 278.144531 C 282.863281 275.867188 282.460938 273.574219 281.8125 271.339844 C 281.457031 270.089844 280.710938 268.957031 280.484375 267.707031 C 280.253906 266.460938 280.574219 265.140625 280.574219 263.847656 C 280.589844 262.15625 280.238281 260.570312 279.519531 259.082031 C 279.257812 258.542969 278.921875 257.796875 278.96875 257.285156 C 279.191406 255.167969 278.417969 253.480469 277.9375 251.5625 C 277.136719 248.402344 276.070312 244.882812 276.832031 241.773438 C 277.597656 238.609375 276.015625 236.023438 276.089844 233.15625 C 275.445312 231.695312 275.109375 230.074219 274.824219 228.421875 C 274.585938 227.066406 274.566406 225.746094 274.910156 224.527344 C 275.171875 223.585938 275.253906 222.589844 274.945312 221.65625 C 274.523438 220.347656 274.398438 219.171875 274.703125 217.832031 C 274.976562 216.617188 275.113281 215.292969 275.222656 213.988281 C 275.308594 212.933594 274.886719 212.035156 274.375 211.367188 C 273.789062 210.59375 273.167969 209.933594 272.503906 209.378906 C 272.457031 208.847656 272.410156 208.339844 272.363281 207.804688 C 272.261719 206.707031 272.160156 205.632812 272.058594 204.546875 C 272.4375 202.714844 272.441406 200.703125 272.171875 198.609375 C 271.238281 191.277344 270.351562 183.945312 269.570312 176.59375 C 269.238281 173.589844 268.863281 170.585938 268.421875 167.597656 C 267.902344 164.28125 267.160156 160.996094 267.636719 157.6875 C 267.308594 155.753906 267.003906 153.8125 266.5625 151.910156 C 266.347656 150.941406 265.816406 150.046875 265.675781 149.089844 C 265.140625 145.285156 264.367188 141.5 263.652344 137.722656 C 262.984375 133.933594 262.460938 130.136719 262.355469 126.277344 C 262.339844 125.3125 262.121094 124.277344 261.90625 123.296875 C 261.234375 120.003906 260.484375 116.722656 259.761719 113.4375 C 259.070312 110.144531 258.183594 106.894531 257.117188 103.691406 C 256.644531 102.261719 256.242188 100.804688 255.847656 99.339844 L 254.5625 94.976562 C 253.085938 89.792969 251.375 84.671875 249.558594 79.597656 C 247.929688 75.527344 246.1875 71.527344 245.125 67.28125 C 244.992188 66.707031 244.34375 66.132812 244.195312 65.550781 C 243.691406 63.519531 242.148438 62.03125 241.546875 60.292969 C 240.886719 58.285156 239.753906 56.808594 238.847656 55.085938 C 237.089844 51.882812 234.675781 48.960938 234.105469 45.230469 C 234.0625 45 233.726562 44.6875 233.503906 44.453125 C 232.132812 42.992188 232.09375 40.65625 230.417969 39.433594 C 228.375 37.878906 228.128906 35.542969 226.960938 33.578125 C 226.609375 33.007812 226.222656 32.363281 225.761719 31.953125 C 225.066406 31.339844 224.433594 30.691406 223.78125 30.058594 C 223.101562 29.441406 222.464844 28.800781 221.878906 28.121094 C 220.703125 26.757812 219.722656 25.242188 218.984375 23.449219 C 218.859375 23.183594 218.5625 22.894531 218.308594 22.707031 C 216.363281 21.320312 215.132812 19.058594 213.34375 17.746094 C 211.136719 16.414062 210.082031 14.398438 208.222656 12.910156 C 202.097656 8.539062 195.5625 4.742188 188.390625 2.214844 C 187.136719 1.8125 185.738281 1.804688 184.429688 1.628906 C 183.816406 1.503906 182.996094 1.746094 182.574219 1.527344 C 181.351562 0.960938 180.03125 0.617188 178.691406 0.375 C 177.351562 0.132812 175.960938 0.261719 174.589844 0.195312 C 170.101562 0.0351562 165.789062 1.152344 161.292969 1.070312 C 160.640625 1.015625 159.910156 1.292969 159.269531 1.550781 C 153.03125 3.65625 146.8125 6.71875 142.484375 11.65625 C 141.460938 12.207031 140.613281 13.015625 139.910156 14.003906 C 139.1875 14.96875 138.417969 15.835938 137.257812 16.328125 C 136.710938 17.007812 136.152344 17.703125 135.597656 18.390625 C 135.324219 18.734375 135.058594 19.085938 134.808594 19.4375 C 134.585938 19.808594 134.398438 20.191406 134.226562 20.578125 C 133.507812 22.195312 132.773438 23.5625 131.8125 25.027344 C 131.027344 26.105469 130.453125 27.449219 130.007812 28.757812 C 127.753906 34.613281 126.433594 40.683594 125.585938 46.78125 C 119.222656 47.746094 104.417969 50.671875 90.3125 58.476562 C 70.777344 69.285156 64.679688 82.414062 64.429688 82.964844 C 63.96875 83.984375 64.191406 85.183594 64.988281 85.96875 C 65.5 86.476562 66.179688 86.742188 66.871094 86.742188 C 67.253906 86.742188 67.636719 86.660156 68 86.496094 C 68.152344 86.421875 83.5625 79.332031 103.480469 74.984375 C 111.175781 73.304688 118.457031 72.84375 123.636719 72.78125 C 123.34375 74.976562 123.3125 77.230469 123.917969 79.363281 C 124.292969 80.628906 124.539062 81.894531 124.660156 83.167969 L 124.675781 83.339844 C 124.753906 84.125 125.402344 84.71875 126.171875 84.742188 C 126.25 84.746094 126.324219 84.757812 126.398438 84.757812 C 126.429688 85.328125 126.457031 85.902344 126.488281 86.464844 C 126.738281 90.945312 127.046875 95.125 127.320312 98.832031 C 127.378906 99.628906 127.425781 100.488281 127.46875 101.390625 C 127.480469 101.679688 127.488281 101.996094 127.5 102.296875 C 127.523438 102.933594 127.542969 103.578125 127.558594 104.257812 C 127.566406 104.636719 127.570312 105.035156 127.574219 105.425781 C 127.585938 106.082031 127.59375 106.746094 127.59375 107.4375 C 127.59375 107.859375 127.59375 108.292969 127.59375 108.726562 C 127.589844 109.359375 127.585938 110.011719 127.578125 110.667969 C 126.730469 110.988281 126.402344 111.371094 126.484375 111.804688 C 126.785156 113.394531 126.8125 114.972656 126.574219 116.53125 C 126.476562 117.167969 126.449219 117.8125 126.527344 118.460938 C 126.617188 119.179688 127.015625 119.925781 125.433594 120.496094 C 125.519531 120.921875 125.539062 121.339844 125.71875 121.765625 C 125.808594 121.984375 126.4375 122.234375 126.402344 122.441406 C 126.132812 124.054688 127.28125 125.796875 124.820312 127.230469 C 124.515625 127.40625 124.507812 127.632812 124.515625 127.84375 C 124.542969 129.277344 123.828125 130.648438 124.394531 132.125 C 124.644531 132.785156 124.441406 133.417969 124.382812 134.054688 C 124.28125 135.195312 124.046875 136.320312 124.035156 137.464844 C 124.027344 137.867188 124.101562 138.277344 124.082031 138.679688 C 123.742188 139.148438 123.429688 139.644531 123.113281 140.140625 C 123.101562 140.148438 123.097656 140.15625 123.085938 140.160156 C 123.066406 140.171875 123.082031 140.1875 123.078125 140.199219 C 122.257812 141.496094 121.386719 142.753906 119.714844 143.378906 C 119.40625 143.492188 119.226562 143.746094 119.0625 143.988281 C 117.914062 145.578125 116.457031 146.925781 115.523438 148.691406 C 115.109375 149.484375 114.476562 150.113281 113.914062 150.796875 C 112.902344 152 111.808594 153.128906 110.828125 154.355469 C 110.007812 155.328125 109.375 156.484375 107.960938 156.886719 C 107.769531 156.9375 107.890625 157.359375 107.707031 157.421875 C 107.0625 157.640625 107.253906 158.609375 106.710938 158.832031 C 106.085938 159.078125 105.996094 159.71875 105.648438 160.175781 C 105.019531 161.035156 104.71875 162.300781 103.089844 162.097656 C 102.988281 162.082031 102.988281 162.265625 102.96875 162.378906 C 102.859375 163.085938 101.640625 162.644531 101.800781 163.625 C 102 164.855469 100.71875 164.394531 100.160156 164.773438 C 99.996094 164.886719 99.808594 165.007812 99.785156 165.234375 C 99.632812 166.617188 99.113281 167.566406 97.585938 167.546875 C 97.464844 167.542969 97.386719 167.632812 97.363281 167.738281 C 97.191406 168.535156 96.199219 168.570312 96.015625 169.292969 C 95.8125 170.125 94.757812 169.964844 94.347656 170.53125 C 93.046875 172.3125 91.5 173.851562 89.859375 175.320312 C 89.570312 175.570312 89.589844 176.109375 89.46875 176.511719 C 89.414062 176.707031 89.488281 177.0625 89.296875 177.074219 C 88.226562 177.148438 87.875 177.894531 87.371094 178.507812 C 86.558594 179.503906 86.023438 180.734375 84.355469 180.972656 C 84.121094 181.007812 83.984375 181.179688 83.878906 181.347656 C 82.863281 182.945312 81.238281 184.097656 80.875 186.171875 C 80.046875 186.359375 80.6875 187.730469 79.441406 187.585938 C 79.128906 187.96875 78.660156 188.257812 78.542969 188.761719 C 78.417969 189.289062 78.222656 189.699219 77.683594 189.921875 C 77.273438 190.089844 77.0625 190.449219 76.835938 190.777344 C 75.519531 192.65625 74.25 194.5625 72.996094 196.484375 C 72.496094 197.222656 71.90625 197.917969 72.320312 199.15625 C 71.574219 199.238281 71.980469 200.078125 71.480469 200.320312 C 70.773438 200.65625 69.992188 200.945312 69.347656 201.339844 C 68.691406 201.742188 68.191406 202.273438 68.335938 203.148438 C 68.515625 204.277344 68.15625 205.058594 67.195312 205.539062 C 67.007812 205.632812 66.945312 205.855469 66.976562 206.078125 C 67.078125 206.820312 66.761719 207.304688 66.074219 207.585938 C 65.5 207.816406 65.898438 208.605469 65.199219 208.773438 C 64.378906 208.976562 65.121094 210.015625 64.421875 210.339844 C 63.914062 210.585938 63.699219 211.074219 63.476562 211.523438 C 62.351562 213.777344 61.34375 216.050781 60.390625 218.480469 C 60.242188 218.875 60.1875 219.285156 60.5 219.785156 C 60.660156 220.042969 60.578125 220.195312 60.3125 220.324219 C 59.46875 220.730469 59.269531 221.4375 59.109375 222.140625 C 58.898438 223.140625 58.316406 224.0625 58.679688 225.195312 C 59.046875 226.332031 57.601562 226.96875 57.664062 228.042969 C 57.777344 229.738281 57.367188 231.277344 56.46875 232.847656 C 56.285156 233.175781 57.332031 233.367188 57.433594 233.625 C 57.535156 233.886719 57.195312 234.167969 57.042969 234.445312 C 56.769531 234.933594 56.296875 235.441406 56.328125 235.957031 C 56.382812 236.597656 56.296875 237.203125 56.058594 237.855469 C 55.933594 238.175781 55.980469 238.53125 56.0625 238.855469 C 56.222656 239.40625 56.492188 239.925781 56.722656 240.464844 C 56.804688 240.667969 56.847656 240.890625 56.8125 241.121094 C 56.496094 242.949219 57.628906 245.03125 59.886719 246.367188 C 60.335938 246.628906 60.917969 246.394531 61.304688 246.855469 C 61.523438 247.082031 61.796875 247.253906 62.085938 247.378906 C 62.429688 247.46875 62.808594 247.503906 63.183594 247.496094 C 63.828125 247.449219 64.265625 247.265625 64.734375 247.160156 C 65.085938 247.058594 65.4375 246.941406 65.777344 246.8125 L 66.6875 246.390625 C 67.292969 246.105469 67.691406 245.5625 68.132812 245.070312 C 68.53125 244.585938 69.527344 245.152344 69.851562 244.480469 C 70.117188 243.929688 70.417969 243.566406 71.089844 243.730469 C 71.441406 243.816406 71.714844 243.640625 71.972656 243.488281 C 74.132812 242.210938 76.230469 240.894531 78.304688 239.546875 C 78.632812 239.335938 78.902344 239.007812 79.085938 238.597656 C 79.28125 238.160156 79.605469 238.035156 80.039062 237.972656 C 81.925781 237.699219 83.3125 236.589844 84.464844 235.109375 C 84.550781 235 84.378906 234.519531 84.304688 234.183594 C 84.34375 234.195312 84.386719 234.222656 84.425781 234.230469 L 84.394531 234.148438 C 85.082031 234.296875 85.839844 234.589844 86.410156 234.5 C 87.414062 234.332031 88.316406 233.957031 89.238281 233.632812 C 90.167969 233.296875 91.019531 232.816406 91.84375 232.296875 C 92.667969 231.773438 93.425781 231.148438 94.214844 230.5625 C 94.308594 229.746094 95.015625 230.082031 95.488281 229.972656 C 95.773438 229.90625 95.777344 229.921875 95.214844 228.746094 C 95.136719 228.582031 95.011719 228.28125 95.03125 228.265625 C 95.175781 228.164062 95.347656 227.953125 95.527344 228.089844 C 96.191406 228.59375 96.859375 229.25 97.335938 228.953125 C 97.75 228.699219 98.179688 228.476562 98.582031 228.203125 C 98.800781 228.054688 98.730469 227.710938 98.425781 227.3125 C 98.117188 226.917969 97.929688 226.5 98.050781 226.304688 C 98.148438 226.144531 98.394531 226.035156 98.582031 226.191406 C 99.21875 226.714844 99.921875 227.605469 100.140625 226.679688 C 100.914062 226.519531 101.589844 226.203125 102.066406 225.457031 C 102.21875 225.222656 102.675781 225.285156 103.015625 225.542969 C 104.035156 226.332031 104.570312 226.242188 104.9375 225.3125 C 105.191406 224.664062 105.847656 224.566406 106.355469 224.28125 C 107.371094 223.699219 108.503906 223.375 109.417969 222.601562 C 109.957031 222.140625 110.496094 221.816406 111.257812 221.949219 C 111.707031 222.027344 111.914062 221.550781 112.105469 221.078125 C 112.207031 220.816406 112.402344 220.871094 112.6875 221.25 C 112.746094 221.324219 112.796875 221.378906 112.851562 221.441406 C 112.8125 221.460938 112.800781 221.476562 112.75 221.492188 C 112.320312 221.628906 112.320312 221.867188 112.300781 222.082031 C 112.148438 223.875 112.007812 225.667969 111.9375 227.46875 C 111.925781 227.753906 112.125 228.070312 112.519531 228.382812 C 112.933594 228.71875 112.804688 228.953125 112.492188 229.214844 C 111.140625 230.359375 111.414062 231.699219 112.417969 233.078125 C 112.492188 233.183594 113.316406 233.335938 113.855469 233.464844 L 113.679688 233.507812 C 113.722656 233.515625 113.777344 233.523438 113.820312 233.53125 C 112.992188 233.828125 111.898438 234.097656 111.511719 234.457031 C 110.832031 235.09375 110.550781 235.789062 110.183594 236.46875 C 109.808594 237.160156 109.742188 237.882812 109.773438 238.617188 C 109.796875 239.347656 110.0625 240.09375 110.222656 240.828125 C 111.308594 241.257812 110.234375 241.527344 110 241.859375 C 109.855469 242.0625 109.832031 242.058594 111.996094 242.246094 C 112.292969 242.269531 112.832031 242.328125 112.835938 242.347656 C 112.863281 242.480469 113.027344 242.671875 112.675781 242.71875 C 111.398438 242.890625 109.894531 243.011719 109.925781 243.433594 C 109.957031 243.796875 109.929688 244.160156 109.996094 244.527344 C 110.035156 244.722656 110.585938 244.824219 111.417969 244.800781 C 112.246094 244.777344 113.003906 244.839844 113.191406 244.992188 C 113.34375 245.117188 113.296875 245.308594 112.921875 245.359375 C 111.636719 245.535156 109.773438 245.609375 110.957031 246.121094 C 110.5625 246.667969 110.542969 247.234375 111.273438 247.824219 C 111.503906 248.011719 111.078125 248.28125 110.4375 248.402344 C 108.507812 248.765625 108.238281 249.171875 109.355469 249.75 C 110.128906 250.15625 109.824219 250.625 109.894531 251.066406 C 110.03125 251.941406 109.75 252.828125 110.308594 253.691406 C 110.644531 254.203125 110.769531 254.664062 110.097656 255.160156 C 109.707031 255.457031 110.320312 255.734375 110.945312 255.992188 C 111.28125 256.136719 111.078125 256.253906 110.324219 256.363281 C 108.089844 256.679688 108.425781 257.144531 108.4375 257.582031 C 108.445312 257.902344 109.195312 258.125 110.65625 258.207031 C 111.601562 258.265625 111.785156 258.363281 111.101562 258.53125 C 109.53125 258.910156 108.53125 259.296875 109.800781 259.742188 C 110.214844 259.890625 109.738281 260.167969 109.636719 260.390625 C 109.464844 260.757812 109.453125 260.769531 110.890625 260.832031 C 112.003906 260.878906 113.136719 260.914062 114.289062 260.933594 L 114.296875 261.519531 C 112.3125 261.589844 111.5 261.722656 110.785156 262.054688 C 109.480469 262.664062 108.683594 263.273438 109.808594 263.800781 C 109.15625 264.230469 110.828125 264.460938 110.417969 264.835938 C 109.894531 265.316406 110.574219 265.703125 110.0625 266.164062 C 109.417969 266.75 109.4375 267.253906 110.605469 267.636719 C 111.410156 267.898438 111.460938 268.25 110.863281 268.6875 C 110.417969 269.015625 109.949219 269.363281 109.910156 269.660156 C 109.804688 270.421875 109.894531 271.164062 109.988281 271.902344 C 110.011719 272.121094 110.101562 272.363281 110.589844 272.480469 C 111.914062 272.800781 112.058594 273.230469 110.964844 273.929688 C 110.433594 274.265625 110.542969 274.585938 110.613281 274.871094 C 110.703125 275.234375 111.082031 275.546875 111.28125 275.890625 C 111.480469 276.234375 111.976562 276.503906 112.375 276.796875 C 112.746094 277.070312 112.085938 277.578125 111.921875 277.980469 C 111.890625 278.058594 111.9375 278.140625 112.121094 278.164062 C 113.640625 278.34375 112.019531 279.222656 113.027344 279.507812 C 111.613281 280.859375 112.621094 281.707031 113.941406 282.429688 C 114.289062 282.617188 114.046875 283 114.5625 283.164062 C 113.351562 283.8125 114.765625 283.851562 114.328125 284.296875 C 113.644531 285.003906 113.785156 285.492188 113.980469 285.984375 C 114.457031 287.125 114.785156 288.304688 115.3125 289.417969 L 116.792969 292.789062 C 116.941406 293.128906 117.351562 293.414062 116.820312 293.953125 C 116.078125 294.707031 117.203125 294.746094 116.710938 295.378906 C 116.347656 295.851562 117.65625 295.589844 117.292969 296.078125 C 116.90625 296.59375 117.160156 296.90625 117.097656 297.324219 C 117.039062 297.710938 117.742188 297.65625 119.066406 297.292969 C 120.410156 296.921875 120.8125 297.046875 120.1875 297.636719 C 119.472656 298.3125 119.421875 298.734375 120.035156 298.859375 C 120.636719 298.980469 120.957031 299.191406 120.867188 299.648438 C 120.679688 300.605469 121.03125 301.339844 120.980469 302.257812 C 120.957031 302.667969 119.863281 303.613281 120.660156 303.609375 C 121.648438 303.601562 121.148438 304.335938 121.773438 304.503906 C 123 304.851562 123.867188 305.375 123.304688 306.660156 C 123.023438 307.3125 123.558594 307.300781 125.199219 306.617188 C 125.578125 306.707031 124.320312 307.4375 124.09375 307.757812 C 123.707031 308.304688 124.949219 307.890625 125.0625 308.160156 C 125.316406 308.769531 125.597656 309.375 126.15625 309.804688 C 126.761719 310.269531 124.636719 312.367188 126.785156 311.914062 C 126.601562 312.355469 126.207031 312.925781 126.273438 313.222656 C 126.421875 314 126.574219 314.8125 127.910156 314.785156 C 129.308594 314.753906 127.769531 316.59375 128.839844 316.757812 C 129.46875 316.851562 129.894531 317.097656 130.648438 317.078125 C 131.445312 317.0625 131.824219 317.292969 131.25 318.210938 C 130.589844 319.269531 130.949219 319.65625 131.554688 319.847656 C 131.894531 319.953125 132.769531 319.652344 132.925781 319.878906 C 133.054688 320.0625 132.773438 320.546875 132.601562 320.957031 C 132.410156 320.890625 132.21875 320.8125 132.019531 320.699219 C 131.789062 320.570312 131.574219 320.621094 131.371094 320.679688 C 130.019531 321.054688 128.570312 321.007812 127.289062 321.71875 C 126.71875 322.035156 126.078125 322.085938 125.460938 322.226562 C 124.363281 322.46875 123.253906 322.664062 122.171875 322.96875 C 121.292969 323.21875 120.488281 323.753906 119.421875 323.210938 C 119.277344 323.136719 119.210938 323.535156 119.066406 323.476562 C 118.570312 323.261719 118.371094 324.160156 117.941406 324.023438 C 117.449219 323.867188 117.179688 324.328125 116.804688 324.5 C 116.097656 324.824219 115.535156 325.675781 114.480469 324.664062 C 114.414062 324.601562 114.363281 324.753906 114.316406 324.839844 C 114.042969 325.371094 113.308594 324.371094 113.148438 325.265625 C 112.960938 326.394531 112.179688 325.335938 111.691406 325.390625 C 111.550781 325.40625 111.386719 325.417969 111.3125 325.597656 C 110.867188 326.6875 110.292969 327.242188 109.195312 326.464844 C 109.113281 326.40625 109.03125 326.441406 108.992188 326.519531 C 108.6875 327.109375 107.960938 326.65625 107.667969 327.175781 C 107.335938 327.773438 106.601562 327.144531 106.179688 327.429688 C 104.828125 328.289062 103.398438 328.910156 101.863281 329.414062 C 101.597656 329.507812 101.527344 329.972656 101.375 330.265625 C 101.304688 330.402344 101.3125 330.734375 101.160156 330.664062 C 100.304688 330.273438 99.910156 330.761719 99.433594 331.085938 C 98.636719 331.597656 98.132812 332.472656 96.683594 332.101562 C 96.476562 332.046875 96.347656 332.15625 96.246094 332.273438 C 95.304688 333.34375 93.746094 333.972656 93.570312 335.796875 C 92.792969 335.90625 93.640625 337.128906 92.417969 337.023438 C 92.210938 337.421875 91.804688 337.765625 91.855469 338.273438 C 91.960938 338.867188 91.875 339.191406 91.609375 339.789062 C 91.386719 340.234375 91.441406 340.75 91.660156 341.253906 C 91.808594 341.621094 91.871094 341.929688 92.269531 342.390625 C 92.621094 342.84375 92.980469 343.019531 93.335938 343.238281 C 94.003906 343.558594 94.597656 343.691406 95.105469 343.75 C 96.140625 343.882812 97.035156 343.84375 97.921875 343.792969 C 98.59375 343.742188 99.296875 343.796875 99.757812 342.710938 C 100.175781 343.242188 100.421875 342.414062 100.792969 342.644531 C 101.089844 342.824219 101.390625 343.027344 101.691406 343.222656 C 101.636719 343.289062 101.578125 343.351562 101.539062 343.425781 C 101.320312 343.84375 101.199219 344.3125 101.042969 344.796875 C 100.980469 344.980469 100.878906 345.128906 100.707031 345.269531 C 100.007812 345.734375 99.554688 346.734375 99.601562 347.886719 C 99.621094 349.0625 100.3125 350.230469 100.992188 350.835938 C 101.253906 351.125 101.8125 351.007812 101.914062 351.492188 C 102.042969 352.046875 102.410156 352.300781 102.804688 352.539062 C 103.183594 352.710938 103.601562 352.796875 103.964844 352.910156 C 104.59375 353.09375 105.195312 353.121094 105.753906 353.121094 C 106.304688 353.101562 106.816406 352.800781 107.261719 352.496094 C 107.691406 352.222656 108.289062 353.082031 108.695312 352.585938 C 109.011719 352.164062 109.292969 351.929688 109.777344 352.304688 C 110.023438 352.496094 110.265625 352.417969 110.488281 352.359375 C 112.335938 351.851562 114.042969 351.171875 115.703125 350.417969 C 115.964844 350.300781 116.179688 350.054688 116.332031 349.714844 C 116.492188 349.351562 116.742188 349.3125 117.078125 349.347656 C 118.550781 349.519531 119.636719 348.746094 120.472656 347.582031 C 120.535156 347.492188 120.378906 347.011719 120.300781 346.683594 C 120.335938 346.703125 120.367188 346.734375 120.398438 346.75 L 120.371094 346.667969 C 120.914062 346.929688 121.527344 347.34375 121.96875 347.351562 C 122.035156 347.351562 122.09375 347.332031 122.15625 347.332031 C 121.789062 347.828125 121.652344 348.429688 121.953125 349.085938 C 122.054688 349.296875 121.765625 349.550781 121.359375 349.644531 C 120.140625 349.917969 119.914062 350.421875 120.554688 351.132812 C 120.976562 351.597656 120.808594 352.15625 120.886719 352.699219 C 121.011719 353.734375 121.144531 354.976562 121.933594 355.925781 C 122.476562 356.453125 122.8125 356.941406 123.003906 357.703125 C 123.128906 358.171875 123.699219 358.207031 124.179688 358.152344 C 124.519531 358.15625 124.707031 358.40625 124.738281 358.914062 C 124.765625 359.652344 125.269531 360.113281 125.679688 360.265625 C 126.175781 360.457031 126.546875 360.378906 126.945312 360.367188 C 127.476562 360.324219 127.757812 359.820312 127.730469 358.933594 C 127.726562 358.355469 127.820312 358.234375 128.074219 358.59375 C 128.660156 359.433594 129.277344 359.886719 129.566406 359 C 129.65625 358.707031 130.015625 358.886719 130.265625 358.867188 C 130.660156 358.828125 130.679688 358.832031 130.484375 357.984375 C 130.335938 357.34375 130.160156 356.703125 129.972656 356.058594 C 130.144531 355.988281 130.332031 355.898438 130.507812 355.820312 C 130.945312 356.886719 131.222656 357.304688 131.664062 357.570312 C 132.488281 358.074219 133.21875 358.25 133.46875 357.40625 C 133.996094 357.601562 133.863281 356.570312 134.28125 356.648438 C 134.820312 356.75 135.023438 356.207031 135.539062 356.300781 C 136.191406 356.417969 136.625 356.195312 136.710938 355.371094 C 136.769531 354.796875 137.066406 354.617188 137.566406 354.765625 C 137.941406 354.875 138.335938 354.992188 138.601562 354.882812 C 139.273438 354.605469 139.878906 354.222656 140.480469 353.835938 C 140.660156 353.722656 140.847656 353.578125 140.851562 353.246094 C 140.859375 352.359375 141.207031 352.089844 142.015625 352.425781 C 142.40625 352.589844 142.65625 352.394531 142.882812 352.234375 C 143.171875 352.027344 143.363281 351.675781 143.613281 351.414062 C 143.867188 351.152344 144.003906 350.742188 144.175781 350.382812 C 144.339844 350.046875 144.886719 350.214844 145.25 350.140625 C 145.324219 350.125 145.382812 350.0625 145.367188 349.941406 C 145.257812 348.957031 146.269531 349.546875 146.335938 348.816406 C 147.683594 349.058594 148.257812 348.175781 148.675781 347.070312 C 148.785156 346.785156 149.144531 346.777344 149.210938 346.398438 C 149.925781 346.875 149.765625 345.996094 150.199219 346.082031 C 150.886719 346.21875 151.273438 345.941406 151.65625 345.625 L 157.105469 341.269531 C 157.378906 341.050781 157.59375 340.679688 158.078125 340.832031 C 158.753906 341.042969 158.714844 340.292969 159.269531 340.390625 C 159.683594 340.464844 159.386719 339.691406 159.8125 339.761719 C 160.261719 339.828125 160.503906 339.550781 160.847656 339.445312 C 161.167969 339.347656 161.105469 338.914062 160.753906 338.160156 C 160.398438 337.394531 160.5 337.085938 161.019531 337.308594 C 161.617188 337.5625 161.972656 337.460938 162.070312 337.011719 C 162.164062 336.574219 162.339844 336.289062 162.730469 336.203125 C 163.546875 336.019531 164.160156 335.542969 164.929688 335.289062 C 165.273438 335.175781 166.054688 335.628906 166.054688 335.085938 C 166.050781 334.625 166.328125 334.527344 166.550781 334.363281 C 171.367188 336.269531 176.46875 337.746094 181.824219 338.75 C 182.023438 338.785156 182.230469 338.820312 182.429688 338.855469 C 181.867188 338.964844 181.304688 339.082031 180.75 339.246094 C 179.871094 339.503906 179.0625 340.019531 177.988281 339.488281 C 177.84375 339.417969 177.78125 339.824219 177.636719 339.761719 C 177.132812 339.5625 176.949219 340.46875 176.515625 340.335938 C 176.015625 340.183594 175.753906 340.652344 175.382812 340.828125 C 174.683594 341.167969 174.152344 342.070312 173.0625 341.074219 C 172.996094 341.011719 172.945312 341.164062 172.902344 341.25 C 172.648438 341.785156 171.875 340.800781 171.757812 341.703125 C 171.605469 342.832031 170.808594 341.816406 170.328125 341.859375 C 170.1875 341.871094 170.027344 341.882812 169.957031 342.0625 C 169.53125 343.136719 168.945312 343.710938 167.875 342.910156 C 167.792969 342.847656 167.710938 342.882812 167.671875 342.957031 C 167.355469 343.527344 166.648438 343.046875 166.34375 343.554688 C 165.996094 344.140625 165.304688 343.484375 164.871094 343.726562 C 163.5 344.492188 162.03125 344.960938 160.480469 345.269531 C 160.210938 345.320312 160.085938 345.761719 159.898438 346.027344 C 159.808594 346.15625 159.773438 346.484375 159.636719 346.398438 C 158.855469 345.90625 158.402344 346.304688 157.882812 346.535156 C 157.039062 346.933594 156.378906 347.65625 155.042969 347.035156 C 154.851562 346.945312 154.707031 347.023438 154.585938 347.109375 C 153.484375 347.96875 151.730469 348.269531 151.210938 350.300781 C 150.796875 350.332031 150.742188 350.78125 150.695312 351.167969 C 150.621094 351.535156 150.597656 351.855469 149.980469 352.167969 C 149.882812 352.484375 149.839844 352.8125 149.851562 353.160156 C 149.851562 353.511719 149.914062 353.847656 150.125 354.054688 C 150.347656 354.304688 150.476562 354.480469 150.660156 354.765625 C 150.890625 355.082031 151.109375 355.417969 151.308594 355.722656 C 151.476562 355.996094 151.699219 356.171875 151.90625 356.269531 C 152.128906 356.390625 152.371094 356.472656 152.558594 356.511719 C 154.824219 357.03125 156.417969 356.691406 158.136719 356.515625 C 158.789062 356.425781 159.46875 356.445312 159.878906 355.34375 C 160.3125 355.859375 160.519531 355.019531 160.902344 355.238281 C 161.3125 355.476562 161.734375 355.746094 162.152344 355.976562 C 162.007812 356.046875 161.738281 356 161.550781 356.042969 C 161.117188 356.132812 160.492188 356.089844 160.246094 356.445312 C 159.941406 356.871094 159.558594 357.195312 159.007812 357.554688 C 158.730469 357.707031 158.566406 358.050781 158.472656 358.375 C 158.3125 358.9375 158.3125 359.605469 158.355469 360.285156 C 158.355469 360.527344 158.378906 360.832031 158.292969 361.09375 C 157.964844 362.226562 158.511719 363.527344 159.21875 364.175781 C 159.980469 364.921875 161.003906 365.335938 161.804688 365.457031 C 162.144531 365.539062 162.503906 365.160156 162.738281 365.503906 C 163.304688 366.277344 164.054688 366.027344 164.652344 366.050781 C 165.203125 366.085938 165.6875 365.988281 166.1875 365.914062 C 166.667969 365.816406 167.09375 365.457031 167.476562 365.113281 C 167.851562 364.796875 168.511719 365.613281 168.847656 365.082031 C 169.125 364.652344 169.375 364.386719 169.871094 364.738281 C 170.128906 364.921875 170.359375 364.828125 170.566406 364.757812 C 172.335938 364.15625 174.011719 363.453125 175.632812 362.652344 C 175.886719 362.523438 176.097656 362.277344 176.238281 361.933594 C 176.386719 361.570312 176.636719 361.519531 176.972656 361.554688 C 178.195312 361.671875 179.128906 361.125 179.878906 360.261719 C 180.007812 360.34375 180.203125 360.410156 180.445312 360.460938 C 180.933594 360.558594 181.359375 360.726562 181.425781 360.898438 C 181.480469 361.042969 181.402344 361.21875 181.167969 361.214844 C 180.375 361.203125 179.242188 361.035156 179.8125 361.707031 C 179.464844 362.21875 179.265625 362.777344 179.597656 363.460938 C 179.699219 363.671875 179.390625 363.910156 178.984375 363.992188 C 177.746094 364.21875 177.554688 364.738281 178.144531 365.425781 C 178.542969 365.886719 178.386719 366.457031 178.414062 366.96875 C 178.507812 367.992188 178.539062 369.207031 179.277344 370.207031 C 179.777344 370.773438 180.109375 371.28125 180.269531 372.082031 C 180.390625 372.5625 180.980469 372.632812 181.472656 372.589844 C 181.695312 372.554688 181.960938 372.839844 181.960938 373.355469 C 181.996094 373.753906 182.09375 374.027344 182.289062 374.269531 C 182.492188 374.515625 182.730469 374.664062 182.9375 374.746094 C 183.441406 374.941406 183.84375 374.875 184.25 374.855469 C 184.777344 374.808594 185.078125 374.304688 185.042969 373.417969 C 185.03125 372.839844 185.117188 372.710938 185.382812 373.074219 C 185.96875 373.90625 186.601562 374.359375 186.882812 373.464844 C 186.972656 373.175781 187.328125 373.347656 187.574219 373.324219 C 187.980469 373.285156 187.988281 373.28125 187.785156 372.4375 C 187.625 371.800781 187.445312 371.160156 187.25 370.515625 C 187.421875 370.441406 187.605469 370.355469 187.785156 370.273438 C 188.230469 371.335938 188.511719 371.746094 188.960938 372.011719 C 189.789062 372.503906 190.519531 372.675781 190.761719 371.828125 C 191.289062 372.015625 191.136719 370.984375 191.558594 371.0625 C 192.097656 371.152344 192.296875 370.609375 192.8125 370.695312 C 193.464844 370.808594 193.894531 370.578125 193.96875 369.753906 C 194.019531 369.183594 194.308594 368.996094 194.8125 369.136719 C 195.191406 369.246094 195.585938 369.355469 195.847656 369.242188 C 196.515625 368.960938 197.117188 368.574219 197.710938 368.175781 C 197.886719 368.0625 198.074219 367.917969 198.074219 367.585938 C 198.070312 366.695312 198.414062 366.421875 199.222656 366.753906 C 199.617188 366.910156 199.863281 366.714844 200.085938 366.550781 C 200.375 366.339844 200.558594 365.984375 200.808594 365.722656 C 201.058594 365.457031 201.1875 365.046875 201.359375 364.6875 C 201.515625 364.347656 202.0625 364.511719 202.425781 364.429688 C 202.496094 364.417969 202.554688 364.351562 202.542969 364.234375 C 202.417969 363.253906 203.433594 363.824219 203.492188 363.097656 C 204.84375 363.328125 205.402344 362.4375 205.808594 361.332031 C 205.914062 361.042969 206.273438 361.03125 206.335938 360.652344 C 207.054688 361.121094 206.882812 360.246094 207.320312 360.328125 C 208.007812 360.457031 208.386719 360.171875 208.769531 359.851562 L 214.15625 355.445312 C 214.429688 355.226562 214.636719 354.851562 215.121094 355 C 215.800781 355.207031 215.753906 354.457031 216.308594 354.550781 C 216.71875 354.617188 216.417969 353.851562 216.84375 353.914062 C 217.292969 353.980469 217.53125 353.699219 217.875 353.589844 C 218.191406 353.488281 218.125 353.054688 217.765625 352.304688 C 217.398438 351.546875 217.5 351.234375 218.019531 351.453125 C 218.621094 351.699219 218.976562 351.597656 219.0625 351.144531 C 219.152344 350.707031 219.328125 350.421875 219.714844 350.328125 C 220.527344 350.136719 221.136719 349.660156 221.902344 349.394531 C 222.242188 349.277344 223.027344 349.726562 223.023438 349.183594 C 223.015625 348.503906 223.617188 348.617188 223.757812 348.128906 C 224.035156 347.15625 224.527344 346.40625 225.59375 346.429688 C 226.136719 346.441406 226.140625 346.078125 225.632812 345.132812 C 225.726562 344.84375 226.292969 345.507812 226.550781 345.574219 C 226.992188 345.691406 226.695312 344.941406 226.929688 344.785156 C 227.453125 344.433594 227.972656 344.066406 228.363281 343.550781 C 228.777344 343 230.273438 343.847656 230.152344 342.617188 C 236.71875 342.203125 243.273438 341.679688 249.8125 341.046875 C 251.480469 340.875 253.332031 340.523438 254.796875 340.792969 C 256.851562 341.171875 258.761719 340.367188 260.644531 340.566406 C 262.050781 340.71875 263.027344 339.816406 264.496094 339.964844 C 266.042969 340.128906 267.75 339.863281 269.378906 339.785156 C 270.886719 339.71875 271.835938 339.21875 272.546875 338.3125 C 273.269531 337.394531 274.523438 337.070312 275.925781 337.382812 C 277.539062 337.742188 279.199219 337.664062 280.804688 337.15625 C 282.375 336.660156 283.84375 336.339844 285.59375 336.265625 C 289.25 336.128906 292.9375 335.59375 296.605469 335.328125 C 298.238281 335.203125 300 335.78125 301.496094 335.117188 C 303.363281 334.292969 305.367188 334.433594 307.265625 333.839844 C 309.808594 333.027344 312.429688 332.347656 315.097656 331.972656 C 315.390625 332.183594 315.679688 332.402344 315.976562 332.605469 L 316.070312 331.867188 C 316.550781 331.816406 317.027344 331.746094 317.511719 331.714844 C 318.445312 331.652344 319.15625 330.847656 319.09375 329.914062 C 319.054688 329.363281 318.765625 328.898438 318.347656 328.613281 Z M 318.347656 328.613281 " fill-opacity="1" fill-rule="nonzero"/></g><path fill="#e8ac19" d="M 127.574219 110.667969 C 127.582031 110.011719 127.585938 109.359375 127.589844 108.726562 C 127.589844 108.292969 127.589844 107.859375 127.589844 107.4375 C 127.585938 106.746094 127.582031 106.082031 127.570312 105.425781 C 127.566406 105.035156 127.5625 104.636719 127.554688 104.257812 C 127.539062 103.578125 127.519531 102.933594 127.496094 102.296875 C 127.484375 101.996094 127.476562 101.679688 127.464844 101.390625 C 127.425781 100.488281 127.378906 99.628906 127.316406 98.832031 C 127.042969 95.125 126.734375 90.945312 126.484375 86.464844 C 126.453125 85.902344 126.425781 85.328125 126.398438 84.757812 C 128.042969 84.824219 129.679688 85.007812 131.386719 85.308594 C 131.992188 85.410156 132.785156 85.332031 133.390625 85.164062 C 135.4375 84.601562 137.410156 84.382812 139.511719 84.476562 C 141.273438 84.53125 142.675781 83.460938 144.402344 83.640625 C 146.402344 83.847656 148 82.328125 150.113281 82.34375 C 151.679688 82.355469 153.40625 81.949219 155.027344 81.59375 L 179.601562 76.121094 C 180.941406 75.824219 182.199219 75.457031 183.253906 74.746094 C 183.796875 74.378906 184.359375 74.289062 185.085938 74.339844 C 185.28125 74.355469 185.476562 74.347656 185.671875 74.351562 C 185.796875 74.820312 185.921875 75.28125 186.0625 75.753906 C 182.53125 85.042969 171.050781 109.628906 147.300781 113.507812 C 141.089844 114.519531 135.558594 113.945312 130.804688 112.640625 C 130.804688 112.636719 130.804688 112.636719 130.804688 112.632812 C 130.53125 111.816406 131.792969 111.136719 131.914062 110.347656 C 131.921875 110.292969 131.582031 110.191406 131.300781 110.148438 C 131.007812 110.105469 130.46875 110.074219 130.257812 110.101562 C 129.046875 110.25 128.179688 110.445312 127.574219 110.667969 Z M 127.574219 110.667969 " fill-opacity="1" fill-rule="nonzero"/><g clip-path="url(#866c854751)"><path fill="#1b233f" d="M 84.285156 234.121094 L 84.390625 234.148438 L 84.421875 234.230469 C 84.378906 234.21875 84.339844 234.195312 84.300781 234.179688 Z M 94.210938 230.5625 C 94.304688 229.746094 95.011719 230.078125 95.480469 229.972656 C 95.769531 229.90625 95.773438 229.921875 95.210938 228.742188 C 95.132812 228.582031 95.003906 228.28125 95.027344 228.265625 C 95.171875 228.160156 95.339844 227.953125 95.523438 228.089844 C 96.183594 228.59375 96.855469 229.25 97.332031 228.949219 C 97.746094 228.699219 98.175781 228.476562 98.578125 228.203125 C 98.796875 228.050781 98.726562 227.710938 98.417969 227.3125 C 98.113281 226.914062 97.921875 226.5 98.046875 226.300781 C 98.144531 226.140625 98.390625 226.035156 98.574219 226.191406 C 99.214844 226.714844 99.917969 227.601562 100.132812 226.679688 C 100.910156 226.519531 101.585938 226.203125 102.0625 225.457031 C 102.214844 225.222656 102.671875 225.285156 103.007812 225.542969 C 104.03125 226.332031 104.566406 226.242188 104.933594 225.3125 C 105.1875 224.664062 105.84375 224.566406 106.351562 224.28125 C 107.363281 223.699219 108.5 223.375 109.414062 222.601562 C 109.949219 222.140625 110.492188 221.816406 111.253906 221.949219 C 111.703125 222.027344 111.90625 221.550781 112.101562 221.074219 C 112.203125 220.816406 112.398438 220.871094 112.683594 221.25 C 112.742188 221.324219 112.792969 221.378906 112.847656 221.441406 C 112.804688 221.457031 112.792969 221.476562 112.746094 221.492188 C 112.316406 221.628906 112.316406 221.867188 112.296875 222.078125 C 112.140625 223.871094 112 225.667969 111.929688 227.46875 C 111.917969 227.75 112.121094 228.070312 112.511719 228.382812 C 112.929688 228.714844 112.800781 228.953125 112.488281 229.214844 C 111.132812 230.359375 111.40625 231.695312 112.414062 233.078125 C 112.488281 233.183594 113.3125 233.332031 113.851562 233.464844 C 114.527344 233.28125 115.652344 233.253906 116.988281 233.332031 C 117.617188 233.367188 118.140625 233.378906 118.578125 233.363281 C 119.226562 233.34375 119.660156 233.265625 119.710938 233.0625 C 119.84375 232.511719 120.039062 231.964844 120.144531 231.410156 C 120.25 230.851562 119.882812 230.269531 119.074219 229.625 C 119.019531 229.578125 118.976562 229.535156 118.925781 229.488281 C 117.886719 228.589844 117.757812 227.757812 119.128906 227.109375 C 119.136719 227.105469 119.132812 227.097656 119.140625 227.09375 C 119.277344 227.019531 119.261719 226.910156 119.167969 226.800781 C 119.136719 226.765625 119.132812 226.734375 119.082031 226.699219 C 118.445312 226.277344 118.203125 225.898438 119.085938 225.664062 C 119.160156 225.644531 119.207031 225.617188 119.273438 225.597656 C 119.972656 225.371094 120.183594 225.082031 120.167969 224.753906 C 120.128906 224.003906 120.765625 223.328125 119.554688 222.457031 C 119.492188 222.414062 119.449219 222.371094 119.375 222.324219 C 119.929688 222.050781 119.171875 221.585938 119.582031 221.320312 C 119.613281 221.300781 119.632812 221.28125 119.664062 221.257812 C 120.933594 220.378906 120.433594 219.265625 120.660156 218.25 C 120.769531 217.769531 120.695312 217.269531 120.070312 216.707031 C 120.128906 216.054688 120.1875 215.402344 120.246094 214.742188 C 120.90625 214.449219 121.148438 214.089844 121.132812 213.683594 C 121.113281 213.175781 121.140625 212.675781 121.171875 212.179688 C 121.246094 211.035156 121.207031 209.875 121.445312 208.753906 C 121.683594 207.636719 121.34375 206.433594 123.210938 205.550781 C 123.539062 205.394531 123.324219 205.136719 123.355469 204.921875 C 123.410156 204.496094 123.472656 204.074219 123.515625 203.644531 C 123.558594 203.144531 123.425781 202.621094 123.65625 202.144531 C 123.855469 201.738281 122.277344 201.15625 123.171875 200.824219 C 124.164062 200.453125 123.386719 199.863281 123.074219 199.324219 C 122.90625 199.03125 123.328125 198.785156 122.953125 198.457031 C 124.589844 197.820312 122.6875 196.710938 123.886719 196.003906 C 124.355469 195.730469 124.152344 195.304688 123.761719 194.914062 C 123.113281 194.265625 122.757812 193.695312 123.832031 193.234375 C 124.421875 192.980469 124.164062 192.550781 123.898438 192.167969 C 123.507812 191.609375 123.050781 191.039062 122.394531 190.460938 C 122.421875 190.152344 122.449219 189.84375 122.476562 189.535156 C 122.65625 189.53125 122.863281 189.523438 123.113281 189.523438 C 123.617188 189.527344 124.152344 189.394531 124.050781 189.277344 C 123.246094 188.324219 124.832031 187.664062 124.597656 186.777344 C 124.359375 185.890625 124.800781 185.070312 124.839844 184.210938 C 124.890625 183.066406 124.832031 181.910156 124.839844 180.757812 C 124.839844 180.394531 124.027344 179.96875 123.859375 179.605469 C 123.703125 179.261719 124.855469 179.039062 124.976562 178.707031 C 125.300781 177.808594 125.492188 176.890625 125.527344 175.960938 C 125.566406 174.667969 125.460938 173.359375 125.316406 172.050781 C 125.25 171.464844 125.523438 170.9375 126.332031 170.453125 C 126.898438 170.113281 126.5625 169.632812 126.953125 169.25 C 127.285156 168.925781 126.65625 168.515625 126.21875 168.121094 C 125.886719 167.820312 125.71875 167.488281 126.097656 167.265625 C 126.636719 166.957031 126.835938 166.652344 125.953125 166.222656 C 125.464844 165.984375 125.109375 165.742188 124.828125 165.507812 C 124.375 165.128906 126.785156 165.351562 126.742188 165.039062 C 126.617188 164.183594 128.476562 163.511719 126.640625 162.496094 C 127.476562 162.238281 127.71875 161.914062 126.972656 161.488281 C 125.644531 160.730469 125.691406 160.121094 127.148438 159.628906 C 127.582031 159.484375 127.644531 159.257812 127.660156 159.046875 L 128.199219 150.464844 L 128.332031 148.535156 L 128.375 146.382812 L 128.460938 144.449219 L 128.515625 142.296875 L 128.601562 140.367188 C 130.726562 139.839844 127.960938 138.914062 128.625 138.269531 C 128.957031 137.945312 128.859375 137.570312 129.210938 137.246094 C 129.503906 136.976562 129.359375 136.699219 129.007812 136.386719 C 128.757812 136.167969 128.582031 135.90625 128.933594 135.75 C 130.65625 134.980469 130.199219 134 130.242188 133.078125 C 130.492188 127.847656 130.554688 122.605469 130.664062 117.367188 C 130.683594 116.578125 130.851562 115.796875 130.886719 115.007812 C 130.921875 114.222656 131.074219 113.4375 130.808594 112.636719 C 130.808594 112.632812 130.808594 112.632812 130.808594 112.628906 C 130.535156 111.8125 131.796875 111.132812 131.917969 110.34375 C 131.925781 110.289062 131.585938 110.1875 131.304688 110.144531 C 131.011719 110.101562 130.472656 110.070312 130.261719 110.097656 C 129.046875 110.246094 128.183594 110.441406 127.578125 110.667969 C 126.730469 110.984375 126.402344 111.367188 126.484375 111.804688 C 126.78125 113.394531 126.8125 114.96875 126.574219 116.527344 C 126.476562 117.167969 126.449219 117.808594 126.527344 118.457031 C 126.617188 119.179688 127.015625 119.925781 125.433594 120.496094 C 125.519531 120.917969 125.539062 121.335938 125.71875 121.765625 C 125.808594 121.980469 126.4375 122.234375 126.402344 122.4375 C 126.132812 124.054688 127.28125 125.796875 124.820312 127.226562 C 124.515625 127.40625 124.507812 127.628906 124.515625 127.84375 C 124.542969 129.273438 123.828125 130.648438 124.394531 132.125 C 124.644531 132.78125 124.441406 133.414062 124.382812 134.054688 C 124.277344 135.191406 124.046875 136.316406 124.03125 137.460938 C 124.027344 137.863281 124.101562 138.273438 124.082031 138.675781 C 123.742188 139.148438 123.425781 139.640625 123.113281 140.136719 C 123.101562 140.144531 123.09375 140.152344 123.082031 140.160156 C 123.066406 140.167969 123.082031 140.183594 123.078125 140.195312 C 122.257812 141.492188 121.382812 142.75 119.714844 143.375 C 119.40625 143.492188 119.226562 143.742188 119.0625 143.984375 C 117.914062 145.578125 116.457031 146.921875 115.523438 148.6875 C 115.109375 149.480469 114.476562 150.113281 113.914062 150.796875 C 112.902344 151.996094 111.808594 153.128906 110.828125 154.355469 C 110.007812 155.328125 109.375 156.484375 107.957031 156.882812 C 107.769531 156.9375 107.890625 157.355469 107.703125 157.421875 C 107.0625 157.636719 107.253906 158.609375 106.707031 158.828125 C 106.085938 159.074219 105.996094 159.71875 105.648438 160.175781 C 105.019531 161.035156 104.71875 162.296875 103.089844 162.09375 C 102.988281 162.082031 102.988281 162.261719 102.96875 162.375 C 102.859375 163.082031 101.636719 162.644531 101.800781 163.621094 C 102 164.851562 100.714844 164.390625 100.160156 164.769531 C 99.996094 164.882812 99.808594 165.003906 99.785156 165.234375 C 99.632812 166.613281 99.113281 167.5625 97.582031 167.542969 C 97.464844 167.539062 97.382812 167.628906 97.359375 167.734375 C 97.191406 168.535156 96.199219 168.566406 96.015625 169.289062 C 95.8125 170.125 94.757812 169.964844 94.347656 170.527344 C 93.042969 172.308594 91.5 173.847656 89.859375 175.316406 C 89.570312 175.570312 89.589844 176.105469 89.46875 176.511719 C 89.414062 176.703125 89.484375 177.058594 89.296875 177.070312 C 88.226562 177.144531 87.875 177.890625 87.371094 178.503906 C 86.558594 179.5 86.023438 180.730469 84.355469 180.96875 C 84.117188 181.003906 83.984375 181.175781 83.878906 181.347656 C 82.859375 182.941406 81.238281 184.097656 80.875 186.167969 C 80.046875 186.355469 80.6875 187.726562 79.441406 187.582031 C 79.128906 187.964844 78.660156 188.253906 78.542969 188.757812 C 78.417969 189.285156 78.222656 189.695312 77.679688 189.917969 C 77.273438 190.085938 77.058594 190.445312 76.835938 190.773438 C 75.519531 192.652344 74.25 194.5625 72.996094 196.480469 C 72.492188 197.21875 71.90625 197.917969 72.320312 199.152344 C 71.574219 199.234375 71.980469 200.074219 71.480469 200.316406 C 70.769531 200.65625 69.992188 200.941406 69.347656 201.339844 C 68.691406 201.738281 68.191406 202.269531 68.335938 203.144531 C 68.515625 204.273438 68.152344 205.058594 67.195312 205.539062 C 67.007812 205.632812 66.945312 205.855469 66.972656 206.074219 C 67.078125 206.816406 66.761719 207.300781 66.074219 207.582031 C 65.5 207.8125 65.898438 208.601562 65.199219 208.773438 C 64.378906 208.976562 65.121094 210.015625 64.421875 210.335938 C 63.910156 210.582031 63.699219 211.074219 63.476562 211.519531 C 62.351562 213.773438 61.34375 216.050781 60.390625 218.476562 C 60.242188 218.871094 60.1875 219.28125 60.5 219.785156 C 60.660156 220.042969 60.578125 220.191406 60.3125 220.324219 C 59.46875 220.730469 59.269531 221.433594 59.109375 222.140625 C 58.894531 223.140625 58.316406 224.0625 58.679688 225.191406 C 59.046875 226.328125 57.601562 226.964844 57.664062 228.039062 C 57.777344 229.734375 57.367188 231.273438 56.46875 232.84375 C 56.285156 233.171875 57.332031 233.367188 57.433594 233.621094 C 57.535156 233.882812 57.195312 234.164062 57.042969 234.445312 C 56.769531 234.929688 56.296875 235.4375 56.328125 235.953125 C 56.378906 236.59375 56.296875 237.199219 56.058594 237.851562 C 55.933594 238.171875 55.980469 238.527344 56.0625 238.851562 C 56.21875 239.402344 56.492188 239.925781 56.71875 240.460938 C 56.804688 240.664062 56.847656 240.886719 56.8125 241.121094 C 56.496094 242.945312 57.628906 245.027344 59.886719 246.363281 C 60.335938 246.628906 60.917969 246.390625 61.304688 246.851562 C 61.523438 247.082031 61.796875 247.25 62.085938 247.375 C 62.429688 247.46875 62.808594 247.5 63.179688 247.492188 C 63.828125 247.445312 64.265625 247.261719 64.734375 247.15625 C 65.085938 247.054688 65.433594 246.9375 65.777344 246.808594 L 66.683594 246.386719 C 67.292969 246.101562 67.691406 245.558594 68.132812 245.070312 C 68.53125 244.582031 69.527344 245.148438 69.851562 244.480469 C 70.117188 243.929688 70.417969 243.5625 71.089844 243.730469 C 71.4375 243.8125 71.714844 243.636719 71.972656 243.484375 C 74.128906 242.207031 76.230469 240.894531 78.300781 239.546875 C 78.628906 239.332031 78.902344 239.003906 79.085938 238.59375 C 79.28125 238.160156 79.605469 238.03125 80.039062 237.96875 C 81.925781 237.699219 83.308594 236.585938 84.464844 235.109375 C 84.550781 234.996094 84.378906 234.515625 84.304688 234.179688 C 84.0625 234.097656 83.816406 233.9375 83.570312 233.722656 C 83.761719 233.609375 83.957031 233.496094 84.148438 233.382812 C 84.195312 233.601562 84.304688 233.882812 84.394531 234.144531 C 85.082031 234.292969 85.839844 234.589844 86.40625 234.496094 C 87.410156 234.328125 88.316406 233.957031 89.238281 233.628906 C 90.167969 233.292969 91.015625 232.8125 91.84375 232.292969 C 92.664062 231.773438 93.421875 231.148438 94.210938 230.5625 Z M 120.296875 346.679688 C 120.328125 346.703125 120.363281 346.734375 120.394531 346.75 L 120.367188 346.667969 L 120.285156 346.625 Z M 149.207031 346.398438 C 149.140625 346.777344 148.777344 346.78125 148.667969 347.070312 C 148.25 348.175781 147.675781 349.058594 146.328125 348.816406 C 146.261719 349.542969 145.25 348.957031 145.363281 349.941406 C 145.375 350.058594 145.316406 350.125 145.246094 350.136719 C 144.878906 350.214844 144.332031 350.042969 144.171875 350.382812 C 143.996094 350.742188 143.859375 351.148438 143.609375 351.410156 C 143.359375 351.675781 143.164062 352.023438 142.875 352.230469 C 142.648438 352.394531 142.398438 352.589844 142.007812 352.425781 C 141.203125 352.085938 140.855469 352.355469 140.847656 353.246094 C 140.84375 353.578125 140.652344 353.722656 140.476562 353.835938 C 139.875 354.222656 139.265625 354.605469 138.59375 354.882812 C 138.332031 354.988281 137.9375 354.875 137.558594 354.765625 C 137.058594 354.617188 136.761719 354.796875 136.703125 355.371094 C 136.617188 356.191406 136.1875 356.417969 135.535156 356.300781 C 135.015625 356.203125 134.816406 356.746094 134.273438 356.648438 C 133.855469 356.570312 133.992188 357.601562 133.464844 357.40625 C 133.214844 358.25 132.484375 358.074219 131.65625 357.570312 C 131.21875 357.300781 130.9375 356.886719 130.503906 355.820312 C 130.328125 355.898438 130.136719 355.988281 129.96875 356.058594 C 130.15625 356.703125 130.328125 357.34375 130.476562 357.980469 C 130.671875 358.828125 130.65625 358.828125 130.257812 358.867188 C 130.011719 358.886719 129.648438 358.707031 129.5625 359 C 129.269531 359.886719 128.652344 359.429688 128.066406 358.589844 C 127.816406 358.230469 127.71875 358.351562 127.726562 358.929688 C 127.75 359.820312 127.472656 360.320312 126.9375 360.363281 C 126.539062 360.378906 126.171875 360.453125 125.675781 360.261719 C 125.261719 360.109375 124.761719 359.648438 124.730469 358.914062 C 124.703125 358.402344 124.515625 358.15625 124.175781 358.148438 C 123.691406 358.207031 123.125 358.167969 123 357.703125 C 122.804688 356.9375 122.46875 356.449219 121.929688 355.925781 C 121.136719 354.976562 121.003906 353.730469 120.878906 352.695312 C 120.800781 352.15625 120.96875 351.59375 120.550781 351.128906 C 119.90625 350.421875 120.132812 349.917969 121.355469 349.644531 C 121.757812 349.550781 122.050781 349.296875 121.949219 349.085938 C 121.644531 348.429688 121.78125 347.828125 122.152344 347.328125 C 122.085938 347.332031 122.027344 347.351562 121.960938 347.347656 C 121.519531 347.339844 120.90625 346.929688 120.363281 346.667969 C 120.28125 346.402344 120.179688 346.121094 120.132812 345.90625 C 119.988281 345.976562 119.847656 346.046875 119.703125 346.117188 C 119.902344 346.367188 120.101562 346.558594 120.296875 346.679688 C 120.371094 347.011719 120.53125 347.492188 120.464844 347.578125 C 119.632812 348.746094 118.542969 349.515625 117.070312 349.347656 C 116.738281 349.308594 116.484375 349.351562 116.324219 349.710938 C 116.175781 350.050781 115.957031 350.300781 115.695312 350.417969 C 114.035156 351.171875 112.328125 351.847656 110.480469 352.355469 C 110.261719 352.417969 110.019531 352.492188 109.769531 352.300781 C 109.289062 351.925781 109.003906 352.160156 108.691406 352.582031 C 108.28125 353.078125 107.683594 352.222656 107.253906 352.492188 C 106.8125 352.796875 106.296875 353.101562 105.75 353.121094 C 105.1875 353.121094 104.589844 353.089844 103.960938 352.90625 C 103.597656 352.792969 103.175781 352.710938 102.796875 352.535156 C 102.402344 352.300781 102.039062 352.042969 101.910156 351.488281 C 101.804688 351.007812 101.246094 351.121094 100.988281 350.835938 C 100.304688 350.226562 99.613281 349.058594 99.59375 347.886719 C 99.550781 346.734375 100.003906 345.734375 100.703125 345.269531 C 100.871094 345.128906 100.976562 344.976562 101.035156 344.796875 C 101.191406 344.308594 101.3125 343.839844 101.53125 343.421875 C 101.574219 343.351562 101.632812 343.285156 101.683594 343.21875 C 101.382812 343.027344 101.082031 342.824219 100.789062 342.640625 C 100.414062 342.410156 100.167969 343.238281 99.75 342.707031 C 99.292969 343.792969 98.589844 343.738281 97.914062 343.792969 C 97.03125 343.84375 96.136719 343.882812 95.097656 343.75 C 94.59375 343.691406 93.996094 343.558594 93.328125 343.238281 C 92.972656 343.015625 92.613281 342.839844 92.265625 342.390625 C 91.867188 341.925781 91.800781 341.617188 91.65625 341.25 C 91.4375 340.75 91.382812 340.230469 91.605469 339.785156 C 91.867188 339.1875 91.957031 338.863281 91.847656 338.273438 C 91.796875 337.761719 92.203125 337.421875 92.410156 337.019531 C 93.632812 337.128906 92.785156 335.90625 93.566406 335.792969 C 93.738281 333.972656 95.296875 333.339844 96.238281 332.273438 C 96.339844 332.15625 96.46875 332.042969 96.675781 332.097656 C 98.128906 332.472656 98.628906 331.597656 99.425781 331.085938 C 99.902344 330.757812 100.296875 330.273438 101.15625 330.664062 C 101.304688 330.730469 101.296875 330.402344 101.371094 330.261719 C 101.523438 329.96875 101.59375 329.507812 101.855469 329.414062 C 103.390625 328.90625 104.820312 328.289062 106.171875 327.429688 C 106.597656 327.140625 107.328125 327.769531 107.660156 327.175781 C 107.953125 326.65625 108.679688 327.105469 108.984375 326.515625 C 109.027344 326.4375 109.105469 326.402344 109.1875 326.460938 C 110.289062 327.238281 110.863281 326.6875 111.308594 325.597656 C 111.382812 325.414062 111.542969 325.402344 111.6875 325.390625 C 112.175781 325.332031 112.957031 326.390625 113.144531 325.265625 C 113.300781 324.371094 114.035156 325.367188 114.3125 324.835938 C 114.355469 324.75 114.410156 324.601562 114.476562 324.664062 C 115.527344 325.675781 116.09375 324.820312 116.796875 324.496094 C 117.171875 324.328125 117.441406 323.863281 117.933594 324.019531 C 118.363281 324.15625 118.5625 323.257812 119.0625 323.472656 C 119.203125 323.535156 119.273438 323.132812 119.414062 323.207031 C 120.480469 323.75 121.285156 323.214844 122.164062 322.96875 C 123.25 322.660156 124.359375 322.46875 125.457031 322.222656 C 126.074219 322.085938 126.714844 322.03125 127.28125 321.714844 C 128.5625 321.007812 130.011719 321.050781 131.367188 320.675781 C 131.570312 320.621094 131.78125 320.566406 132.011719 320.695312 C 132.210938 320.808594 132.40625 320.886719 132.59375 320.953125 C 132.765625 320.546875 133.050781 320.058594 132.921875 319.875 C 132.761719 319.652344 131.890625 319.949219 131.550781 319.84375 C 130.945312 319.652344 130.585938 319.265625 131.246094 318.210938 C 131.820312 317.289062 131.4375 317.0625 130.644531 317.078125 C 129.890625 317.09375 129.460938 316.847656 128.832031 316.757812 C 127.765625 316.59375 129.300781 314.75 127.902344 314.78125 C 126.566406 314.8125 126.417969 313.996094 126.265625 313.21875 C 126.203125 312.925781 126.59375 312.351562 126.78125 311.910156 C 124.628906 312.363281 126.757812 310.265625 126.148438 309.800781 C 125.59375 309.371094 125.308594 308.765625 125.054688 308.15625 C 124.945312 307.886719 123.699219 308.304688 124.089844 307.753906 C 124.316406 307.4375 125.570312 306.707031 125.191406 306.613281 C 123.554688 307.296875 123.015625 307.308594 123.300781 306.660156 C 123.863281 305.371094 122.992188 304.847656 121.765625 304.503906 C 121.140625 304.332031 121.644531 303.601562 120.652344 303.609375 C 119.859375 303.609375 120.949219 302.664062 120.972656 302.257812 C 121.027344 301.339844 120.671875 300.605469 120.859375 299.644531 C 120.949219 299.1875 120.632812 298.976562 120.03125 298.855469 C 119.417969 298.730469 119.464844 298.3125 120.183594 297.636719 C 120.804688 297.046875 120.40625 296.921875 119.0625 297.292969 C 117.738281 297.65625 117.035156 297.707031 117.089844 297.320312 C 117.152344 296.902344 116.898438 296.589844 117.285156 296.074219 C 117.652344 295.585938 116.339844 295.851562 116.707031 295.375 C 117.199219 294.746094 116.074219 294.703125 116.8125 293.949219 C 117.34375 293.414062 116.933594 293.128906 116.785156 292.789062 L 115.308594 289.417969 C 114.777344 288.300781 114.449219 287.121094 113.972656 285.980469 C 113.78125 285.488281 113.640625 285.003906 114.324219 284.292969 C 114.757812 283.851562 113.34375 283.808594 114.554688 283.160156 C 114.042969 283 114.285156 282.617188 113.933594 282.429688 C 112.613281 281.707031 111.609375 280.855469 113.019531 279.503906 C 112.015625 279.21875 113.636719 278.339844 112.113281 278.160156 C 111.933594 278.140625 111.882812 278.058594 111.914062 277.980469 C 112.082031 277.574219 112.738281 277.066406 112.367188 276.792969 C 111.972656 276.503906 111.472656 276.230469 111.273438 275.886719 C 111.078125 275.546875 110.699219 275.234375 110.605469 274.871094 C 110.535156 274.582031 110.425781 274.265625 110.957031 273.925781 C 112.054688 273.226562 111.90625 272.796875 110.582031 272.480469 C 110.09375 272.359375 110.003906 272.121094 109.984375 271.902344 C 109.886719 271.160156 109.796875 270.417969 109.902344 269.65625 C 109.945312 269.359375 110.410156 269.011719 110.859375 268.6875 C 111.453125 268.25 111.40625 267.898438 110.597656 267.632812 C 109.429688 267.25 109.414062 266.746094 110.054688 266.164062 C 110.566406 265.699219 109.886719 265.3125 110.410156 264.832031 C 110.820312 264.460938 109.152344 264.230469 109.804688 263.800781 C 108.679688 263.269531 109.472656 262.660156 110.777344 262.050781 C 111.492188 261.71875 112.308594 261.589844 114.296875 261.519531 C 115.34375 261.484375 116.589844 261.601562 116.648438 261.75 C 116.746094 262.023438 116.84375 262.296875 116.933594 262.546875 C 117.277344 262.898438 116.984375 263.261719 116.746094 263.625 C 116.605469 263.832031 115.65625 264.082031 116.238281 264.257812 C 117.113281 264.519531 115.609375 264.988281 116.597656 265.242188 C 117.375 265.441406 116.953125 265.753906 116.5 266.066406 C 116.113281 266.332031 116.730469 266.457031 117.464844 266.535156 C 117.589844 266.550781 117.707031 266.5625 117.820312 266.578125 C 118.648438 266.683594 119.160156 266.820312 118.652344 267.144531 C 118.300781 267.375 118.21875 267.597656 118.117188 267.8125 C 117.945312 268.1875 118.355469 268.476562 119.238281 268.6875 C 119.996094 268.871094 119.640625 269.175781 118.863281 269.519531 C 118.667969 269.605469 118.445312 269.691406 118.226562 269.78125 C 117.828125 269.941406 117.421875 270.105469 117.078125 270.265625 C 115.902344 270.824219 116.082031 271.167969 118.214844 271.222656 C 118.296875 271.222656 118.363281 271.230469 118.441406 271.230469 C 119.496094 271.269531 120.152344 271.363281 120.273438 271.609375 C 120.40625 271.871094 119.84375 272.144531 118.648438 272.441406 C 118.519531 272.472656 118.414062 272.503906 118.269531 272.535156 C 117.601562 272.675781 116.910156 272.824219 116.238281 272.964844 C 115.417969 273.144531 114.886719 273.589844 115.511719 273.617188 C 116.253906 273.652344 117.355469 273.554688 117.984375 273.613281 C 118.570312 273.664062 117.660156 274.117188 118.699219 274.042969 C 118.78125 274.039062 118.839844 274.035156 118.917969 274.03125 C 121.167969 273.898438 121.261719 274.265625 120.898438 274.726562 C 120.519531 275.207031 120.066406 275.703125 119.363281 276.238281 C 118.6875 276.753906 117.78125 277.300781 116.484375 277.910156 C 116.125 278.082031 116.148438 278.261719 116.269531 278.375 C 116.386719 278.480469 116.808594 278.519531 117.214844 278.542969 C 117.320312 278.550781 117.910156 278.398438 118.214844 278.304688 C 118.945312 278.085938 119.480469 277.996094 119.75 278.054688 C 119.796875 278.0625 119.851562 278.070312 119.882812 278.085938 C 120.347656 278.398438 120.601562 278.746094 120.039062 279.277344 C 120.027344 279.285156 120.027344 279.292969 120.015625 279.304688 C 119.714844 279.574219 119.472656 279.816406 119.921875 279.929688 C 120.039062 279.957031 120.128906 279.992188 120.234375 280.027344 C 121.753906 280.507812 121.761719 281.347656 121.269531 282.328125 C 120.933594 282.996094 121.070312 283.496094 121.875 283.824219 C 122.269531 283.984375 122.433594 284.226562 122.507812 284.484375 C 122.972656 286.335938 123.726562 288.09375 124.394531 289.878906 C 124.621094 290.449219 125.011719 290.957031 125.246094 291.519531 C 125.59375 292.332031 126.527344 292.886719 125.5 294.261719 C 125.238281 294.625 125.796875 294.707031 125.777344 295.015625 C 125.753906 295.382812 127.167969 295.117188 126.554688 295.757812 C 126.0625 296.273438 127.242188 296.050781 126.980469 296.425781 C 126.578125 297.003906 127.542969 296.898438 127.882812 297.09375 C 128.25 297.308594 128.046875 297.753906 127.488281 298.375 C 127.375 298.496094 127.300781 298.605469 127.253906 298.699219 C 127.152344 298.914062 127.234375 299.042969 127.460938 299.097656 C 127.542969 299.117188 127.628906 299.132812 127.753906 299.128906 C 128.386719 299.117188 128.738281 299.214844 128.375 299.703125 C 128.21875 299.917969 128.179688 300.113281 128.414062 300.125 C 129.554688 300.195312 130.179688 300.5 130.394531 301.023438 C 130.644531 301.527344 130.511719 302.234375 130.058594 303.132812 C 129.910156 303.433594 130.011719 303.628906 130.242188 303.730469 C 130.710938 303.933594 131.660156 303.859375 131.828125 304.21875 C 132.019531 304.636719 131.109375 305.695312 132.378906 305.503906 C 132.058594 306.148438 132.125 306.582031 132.351562 306.929688 C 132.511719 307.175781 132.632812 307.441406 132.710938 307.734375 C 132.742188 307.855469 132.789062 307.96875 132.792969 308.105469 C 132.804688 308.414062 132.234375 309.082031 132.363281 309.316406 C 132.488281 309.546875 133.351562 309.308594 133.554688 309.492188 C 133.808594 309.730469 133.859375 310.109375 133.839844 310.523438 C 133.832031 310.761719 133.539062 311.148438 133.941406 311.15625 C 136.082031 311.207031 135.964844 312.777344 137.015625 313.558594 C 136.210938 314.679688 137.089844 314.621094 137.625 314.816406 C 138.394531 315.101562 138.789062 315.664062 139.140625 316.261719 C 139.480469 316.859375 140.332031 317.078125 139.6875 318.417969 C 141.101562 318.183594 141.453125 318.789062 141.894531 319.324219 C 142.109375 319.285156 142.320312 319.214844 142.535156 319.1875 C 142.554688 319.183594 142.574219 319.179688 142.59375 319.175781 C 143.363281 319.902344 144.140625 320.613281 144.941406 321.304688 C 149.824219 325.539062 155.28125 329.121094 161.230469 332.007812 C 162.960938 332.847656 164.726562 333.644531 166.542969 334.363281 C 166.320312 334.527344 166.046875 334.625 166.046875 335.085938 C 166.046875 335.628906 165.265625 335.175781 164.921875 335.289062 C 164.152344 335.542969 163.539062 336.019531 162.722656 336.203125 C 162.332031 336.289062 162.152344 336.574219 162.0625 337.011719 C 161.964844 337.460938 161.609375 337.5625 161.011719 337.308594 C 160.492188 337.085938 160.390625 337.398438 160.746094 338.160156 C 161.097656 338.917969 161.160156 339.347656 160.84375 339.445312 C 160.496094 339.554688 160.253906 339.832031 159.804688 339.761719 C 159.378906 339.695312 159.675781 340.464844 159.261719 340.390625 C 158.707031 340.292969 158.746094 341.042969 158.070312 340.832031 C 157.585938 340.679688 157.371094 341.050781 157.097656 341.269531 L 151.648438 345.625 C 151.265625 345.941406 150.878906 346.21875 150.191406 346.082031 C 149.761719 345.996094 149.917969 346.875 149.207031 346.398438 Z M 140.867188 349.929688 C 140.777344 349.988281 140.6875 350.046875 140.59375 350.105469 C 140.777344 350.171875 140.914062 350.132812 140.867188 349.929688 Z M 144.847656 347.300781 C 144.757812 347.359375 144.667969 347.417969 144.578125 347.480469 C 144.691406 347.484375 144.785156 347.445312 144.835938 347.363281 C 144.84375 347.347656 144.839844 347.316406 144.847656 347.300781 Z M 149.042969 231.351562 C 148.996094 231.441406 148.945312 231.507812 148.902344 231.609375 L 148.984375 231.671875 L 149.089844 231.421875 Z M 319.089844 329.910156 C 319.148438 330.84375 318.441406 331.652344 317.503906 331.710938 C 317.023438 331.742188 316.542969 331.8125 316.066406 331.863281 L 315.96875 332.601562 C 315.675781 332.398438 315.386719 332.179688 315.09375 331.96875 C 312.425781 332.34375 309.804688 333.023438 307.257812 333.835938 C 305.363281 334.429688 303.359375 334.292969 301.488281 335.113281 C 299.992188 335.777344 298.234375 335.199219 296.601562 335.324219 C 292.929688 335.589844 289.246094 336.125 285.585938 336.265625 C 283.839844 336.339844 282.371094 336.65625 280.796875 337.152344 C 279.191406 337.660156 277.535156 337.738281 275.921875 337.378906 C 274.515625 337.066406 273.265625 337.390625 272.542969 338.308594 C 271.832031 339.21875 270.878906 339.714844 269.375 339.78125 C 267.742188 339.859375 266.039062 340.125 264.488281 339.964844 C 263.023438 339.8125 262.046875 340.714844 260.640625 340.5625 C 258.753906 340.363281 256.84375 341.171875 254.792969 340.792969 C 253.328125 340.519531 251.476562 340.871094 249.808594 341.042969 C 243.269531 341.675781 236.714844 342.199219 230.148438 342.613281 C 230.269531 343.84375 228.773438 342.996094 228.359375 343.546875 C 227.96875 344.0625 227.449219 344.429688 226.921875 344.78125 C 226.691406 344.9375 226.988281 345.6875 226.542969 345.570312 C 226.285156 345.503906 225.722656 344.839844 225.625 345.128906 C 226.136719 346.074219 226.128906 346.4375 225.589844 346.425781 C 224.523438 346.40625 224.03125 347.152344 223.753906 348.125 C 223.613281 348.613281 223.007812 348.5 223.015625 349.179688 C 223.023438 349.722656 222.238281 349.277344 221.898438 349.394531 C 221.132812 349.65625 220.523438 350.136719 219.710938 350.324219 C 219.320312 350.417969 219.144531 350.703125 219.058594 351.144531 C 218.96875 351.59375 218.613281 351.695312 218.015625 351.449219 C 217.492188 351.230469 217.394531 351.542969 217.757812 352.300781 C 218.121094 353.054688 218.1875 353.484375 217.867188 353.585938 C 217.523438 353.695312 217.285156 353.976562 216.835938 353.910156 C 216.414062 353.847656 216.714844 354.613281 216.300781 354.546875 C 215.746094 354.453125 215.796875 355.203125 215.117188 354.996094 C 214.632812 354.847656 214.421875 355.222656 214.152344 355.445312 L 208.761719 359.847656 C 208.382812 360.167969 208 360.453125 207.3125 360.324219 C 206.878906 360.242188 207.050781 361.117188 206.328125 360.648438 C 206.269531 361.027344 205.90625 361.039062 205.804688 361.328125 C 205.398438 362.433594 204.835938 363.324219 203.488281 363.09375 C 203.429688 363.820312 202.414062 363.25 202.535156 364.230469 C 202.550781 364.347656 202.492188 364.414062 202.421875 364.429688 C 202.058594 364.507812 201.511719 364.34375 201.351562 364.683594 C 201.183594 365.042969 201.050781 365.453125 200.804688 365.71875 C 200.554688 365.980469 200.367188 366.335938 200.082031 366.546875 C 199.855469 366.710938 199.609375 366.90625 199.21875 366.75 C 198.410156 366.417969 198.066406 366.691406 198.070312 367.582031 C 198.070312 367.914062 197.878906 368.058594 197.707031 368.171875 C 197.113281 368.570312 196.507812 368.957031 195.84375 369.242188 C 195.582031 369.351562 195.1875 369.242188 194.808594 369.136719 C 194.304688 368.992188 194.015625 369.179688 193.960938 369.75 C 193.886719 370.574219 193.457031 370.804688 192.804688 370.691406 C 192.289062 370.605469 192.089844 371.148438 191.554688 371.058594 C 191.132812 370.980469 191.285156 372.011719 190.753906 371.824219 C 190.515625 372.671875 189.785156 372.5 188.953125 372.007812 C 188.507812 371.742188 188.226562 371.332031 187.777344 370.273438 C 187.601562 370.351562 187.417969 370.441406 187.246094 370.515625 C 187.441406 371.15625 187.621094 371.796875 187.777344 372.433594 C 187.984375 373.277344 187.972656 373.28125 187.570312 373.320312 C 187.324219 373.34375 186.96875 373.171875 186.875 373.460938 C 186.597656 374.355469 185.964844 373.902344 185.378906 373.070312 C 185.113281 372.707031 185.027344 372.835938 185.035156 373.414062 C 185.074219 374.304688 184.769531 374.804688 184.246094 374.855469 C 183.839844 374.871094 183.433594 374.9375 182.933594 374.742188 C 182.722656 374.664062 182.488281 374.511719 182.28125 374.265625 C 182.085938 374.023438 181.992188 373.75 181.953125 373.351562 C 181.953125 372.835938 181.691406 372.550781 181.464844 372.585938 C 180.972656 372.628906 180.386719 372.5625 180.265625 372.078125 C 180.101562 371.277344 179.773438 370.773438 179.273438 370.203125 C 178.535156 369.203125 178.503906 367.988281 178.410156 366.964844 C 178.382812 366.453125 178.535156 365.882812 178.136719 365.421875 C 177.546875 364.734375 177.742188 364.21875 178.976562 363.988281 C 179.382812 363.910156 179.691406 363.671875 179.589844 363.457031 C 179.257812 362.773438 179.457031 362.214844 179.808594 361.703125 C 179.238281 361.03125 180.371094 361.203125 181.164062 361.210938 C 181.398438 361.214844 181.476562 361.039062 181.421875 360.898438 C 181.355469 360.722656 180.929688 360.554688 180.441406 360.457031 C 180.199219 360.40625 180.003906 360.339844 179.871094 360.257812 C 179.121094 361.121094 178.191406 361.667969 176.964844 361.550781 C 176.628906 361.515625 176.382812 361.566406 176.234375 361.929688 C 176.09375 362.273438 175.878906 362.523438 175.625 362.648438 C 174.007812 363.449219 172.328125 364.15625 170.5625 364.753906 C 170.351562 364.828125 170.125 364.917969 169.863281 364.734375 C 169.371094 364.386719 169.117188 364.648438 168.84375 365.078125 C 168.507812 365.609375 167.847656 364.792969 167.472656 365.109375 C 167.085938 365.453125 166.664062 365.8125 166.183594 365.910156 C 165.683594 365.984375 165.195312 366.082031 164.644531 366.046875 C 164.050781 366.023438 163.300781 366.273438 162.730469 365.5 C 162.496094 365.15625 162.136719 365.535156 161.800781 365.453125 C 160.996094 365.332031 159.972656 364.921875 159.210938 364.175781 C 158.507812 363.523438 157.960938 362.222656 158.289062 361.089844 C 158.375 360.828125 158.351562 360.527344 158.347656 360.28125 C 158.304688 359.605469 158.308594 358.933594 158.46875 358.371094 C 158.5625 358.046875 158.726562 357.703125 159.003906 357.550781 C 159.550781 357.191406 159.933594 356.871094 160.238281 356.441406 C 160.488281 356.085938 161.109375 356.128906 161.546875 356.039062 C 161.734375 355.996094 162.003906 356.042969 162.144531 355.972656 C 161.726562 355.742188 161.304688 355.472656 160.898438 355.234375 C 160.515625 355.015625 160.304688 355.855469 159.871094 355.339844 C 159.464844 356.441406 158.785156 356.421875 158.132812 356.511719 C 156.414062 356.6875 154.816406 357.027344 152.554688 356.507812 C 152.367188 356.46875 152.125 356.386719 151.902344 356.265625 C 151.695312 356.167969 151.46875 355.992188 151.304688 355.71875 C 151.105469 355.414062 150.882812 355.078125 150.65625 354.761719 C 150.46875 354.476562 150.339844 354.300781 150.121094 354.050781 C 149.90625 353.84375 149.84375 353.507812 149.847656 353.15625 C 149.835938 352.808594 149.878906 352.480469 149.976562 352.164062 C 150.59375 351.851562 150.617188 351.53125 150.691406 351.164062 C 150.734375 350.777344 150.789062 350.328125 151.203125 350.296875 C 151.722656 348.269531 153.480469 347.964844 154.578125 347.105469 C 154.699219 347.019531 154.847656 346.941406 155.035156 347.03125 C 156.375 347.648438 157.03125 346.929688 157.878906 346.53125 C 158.394531 346.300781 158.851562 345.902344 159.628906 346.394531 C 159.765625 346.480469 159.804688 346.152344 159.894531 346.023438 C 160.082031 345.757812 160.207031 345.316406 160.476562 345.265625 C 162.027344 344.957031 163.496094 344.488281 164.867188 343.722656 C 165.296875 343.480469 165.988281 344.136719 166.339844 343.550781 C 166.644531 343.042969 167.347656 343.527344 167.664062 342.953125 C 167.707031 342.878906 167.785156 342.84375 167.867188 342.90625 C 168.9375 343.707031 169.523438 343.136719 169.953125 342.058594 C 170.023438 341.878906 170.179688 341.867188 170.324219 341.855469 C 170.800781 341.8125 171.601562 342.828125 171.75 341.699219 C 171.871094 340.796875 172.644531 341.78125 172.898438 341.246094 C 172.941406 341.160156 172.988281 341.007812 173.058594 341.070312 C 174.148438 342.066406 174.675781 341.164062 175.375 340.824219 C 175.75 340.648438 176.011719 340.183594 176.511719 340.332031 C 176.941406 340.464844 177.128906 339.558594 177.632812 339.761719 C 177.773438 339.816406 177.835938 339.414062 177.980469 339.484375 C 179.058594 340.015625 179.863281 339.5 180.746094 339.242188 C 181.296875 339.078125 181.859375 338.960938 182.425781 338.851562 C 185.683594 339.4375 189.230469 339.882812 193.007812 340.203125 C 198.699219 340.683594 204.910156 340.886719 211.417969 340.867188 C 210.832031 339.902344 210.332031 338.898438 209.96875 337.820312 C 209.484375 336.363281 207.890625 335.097656 207.960938 333.351562 C 207.136719 332.265625 206.75 330.832031 206.113281 329.75 C 203.742188 325.554688 201.980469 321.035156 201.90625 316.1875 C 200.875 314.101562 201.453125 311.484375 200.242188 309.449219 C 200.097656 309.203125 200.015625 308.800781 199.996094 308.472656 C 199.871094 306.800781 200.105469 305.015625 199.730469 303.5 C 199.332031 301.882812 198.988281 300.265625 198.761719 298.570312 C 198.570312 296.871094 198.167969 295.179688 198.15625 293.476562 C 198.113281 292.132812 198.050781 290.617188 198.375 289.460938 C 198.996094 287.070312 199.054688 284.980469 198.355469 282.660156 C 198.097656 281.796875 198.109375 280.660156 198.128906 279.65625 C 198.320312 276.253906 198.480469 272.839844 198.925781 269.476562 C 199.101562 268.160156 199.535156 266.867188 199.949219 265.640625 C 200.480469 263.996094 200.691406 262.363281 200.441406 260.734375 C 200.085938 258.386719 200.363281 256.140625 201.183594 253.847656 C 201.824219 252.019531 201.738281 249.953125 202.433594 248.042969 C 202.984375 246.550781 202.3125 244.789062 203.039062 243.152344 C 202.929688 240.320312 203.933594 237.945312 205.222656 235.699219 C 205.933594 234.507812 206.5 234.21875 207.578125 234.617188 C 207.785156 233.691406 207.992188 232.789062 208.199219 231.914062 C 207.628906 231.410156 207.085938 230.839844 206.558594 230.253906 C 205.863281 229.476562 205.882812 229.433594 206.386719 227.851562 C 206.6875 226.910156 207.253906 225.824219 207.199219 225.035156 C 207.0625 222.644531 208.027344 221.277344 209.363281 220.050781 C 209.941406 219.515625 209.972656 219.007812 209.527344 218.488281 C 208.9375 217.800781 208.789062 216.820312 209.015625 215.664062 C 208.078125 216.140625 207.128906 216.609375 206.035156 216.699219 C 203.890625 216.890625 201.988281 217.722656 200.09375 218.882812 C 196.898438 220.839844 193.621094 222.902344 190.699219 225.457031 C 189.25 226.71875 187.558594 228.035156 186.671875 229.566406 C 185.402344 231.761719 184.113281 232.925781 181.960938 233.585938 C 181.246094 233.804688 180.195312 234.617188 179.777344 235.328125 C 178.445312 237.570312 176.839844 239.527344 175.082031 241.453125 C 174.371094 243.554688 173.042969 243.472656 171.765625 243.894531 C 171.394531 244.019531 170.832031 244.730469 170.578125 245.230469 C 170.269531 245.84375 170.582031 246.191406 171.15625 246.246094 C 171.734375 246.304688 171.808594 246.761719 171.292969 247.503906 L 168.367188 251.574219 C 167.234375 253.148438 165.921875 253.390625 164.601562 253.851562 C 164.234375 253.980469 163.792969 254.71875 163.421875 255.203125 C 163.367188 255.277344 163.546875 255.570312 163.667969 255.707031 C 164.53125 256.710938 164.519531 256.703125 163.8125 257.429688 C 162.609375 258.636719 161.09375 259.40625 160.101562 261.132812 C 159.367188 261.78125 158.566406 262.445312 157.394531 262.992188 C 156.835938 263.269531 156.082031 263.480469 155.269531 263.554688 C 154.425781 263.597656 153.480469 263.445312 152.695312 263.054688 C 152.3125 262.875 151.953125 262.628906 151.664062 262.417969 L 150.988281 261.832031 C 150.507812 261.4375 150.203125 260.996094 149.828125 260.5625 C 149.15625 259.683594 148.652344 258.769531 148.230469 257.855469 C 146.660156 254.191406 146.234375 250.558594 146.183594 247.050781 C 146.183594 243.582031 146.429688 240.152344 147.074219 236.875 C 147.433594 235.023438 148.273438 233.363281 148.984375 231.675781 C 149.214844 231.890625 149.503906 232.066406 149.691406 232.3125 C 149.785156 231.589844 149.890625 230.863281 150 230.125 C 149.644531 230.410156 149.316406 230.8125 149.042969 231.351562 C 148.765625 230.933594 148.324219 230.535156 148.339844 230.078125 C 148.554688 224 149.707031 217.917969 152.089844 212.304688 C 152.640625 211.023438 153.035156 209.914062 153.183594 208.546875 C 153.332031 207.253906 153.617188 205.886719 154.054688 204.617188 C 156.710938 196.539062 160.234375 188.699219 164.121094 181.207031 C 164.574219 180.308594 165.074219 179.328125 165.707031 178.664062 C 166.914062 177.398438 167.457031 176 167.933594 174.390625 C 168.507812 172.429688 170.300781 171.128906 171.007812 169.339844 C 171.738281 167.484375 172.398438 165.636719 173.339844 163.855469 L 176.136719 158.550781 C 177.246094 156.511719 178.066406 154.28125 179.605469 152.566406 C 180.34375 151.761719 180.3125 150.78125 180.667969 149.898438 C 182.585938 145.324219 183.984375 140.640625 186.207031 136.238281 C 186.484375 135.699219 186.699219 135.070312 186.839844 134.46875 C 187.132812 132.875 187.425781 131.296875 187.71875 129.699219 C 187.875 128.75 188.09375 127.761719 188.4375 126.878906 C 189.132812 125.097656 189.460938 123.273438 189.742188 121.34375 C 189.859375 119.78125 190.535156 118.242188 190.90625 116.660156 C 191.089844 115.761719 191.476562 114.792969 191.398438 113.96875 C 191.308594 113.164062 190.304688 112.828125 190.457031 111.769531 C 191.351562 106.625 191.214844 101.285156 190.164062 96.117188 C 189.488281 92.882812 190.292969 89.597656 189.019531 86.441406 C 187.800781 83.386719 187.359375 80.066406 186.410156 76.914062 C 186.292969 76.53125 186.179688 76.140625 186.066406 75.757812 C 185.925781 75.285156 185.796875 74.820312 185.671875 74.355469 C 185.476562 74.347656 185.285156 74.355469 185.089844 74.34375 C 184.363281 74.289062 183.800781 74.382812 183.253906 74.75 C 182.203125 75.457031 180.945312 75.824219 179.605469 76.121094 L 155.03125 81.59375 C 153.40625 81.953125 151.679688 82.355469 150.117188 82.34375 C 148.003906 82.328125 146.402344 83.851562 144.40625 83.644531 C 142.675781 83.460938 141.277344 84.53125 139.511719 84.476562 C 137.414062 84.382812 135.441406 84.601562 133.390625 85.164062 C 132.785156 85.332031 131.996094 85.414062 131.390625 85.308594 C 129.683594 85.007812 128.042969 84.824219 126.398438 84.761719 C 126.324219 84.757812 126.25 84.746094 126.171875 84.746094 C 125.402344 84.722656 124.75 84.128906 124.675781 83.339844 L 124.660156 83.171875 C 124.539062 81.894531 124.292969 80.628906 123.917969 79.363281 C 123.308594 77.234375 123.339844 74.976562 123.636719 72.785156 C 118.457031 72.847656 111.175781 73.304688 103.480469 74.984375 C 83.5625 79.332031 68.152344 86.425781 67.996094 86.496094 C 67.636719 86.664062 67.253906 86.746094 66.871094 86.746094 C 66.179688 86.746094 65.5 86.476562 64.988281 85.96875 C 64.191406 85.183594 63.96875 83.988281 64.429688 82.96875 C 64.679688 82.414062 70.777344 69.289062 90.3125 58.476562 C 104.417969 50.675781 119.222656 47.746094 125.585938 46.785156 C 126.433594 40.683594 127.753906 34.613281 130.007812 28.757812 C 130.453125 27.453125 131.027344 26.109375 131.808594 25.027344 C 132.773438 23.566406 133.507812 22.195312 134.226562 20.578125 C 134.394531 20.195312 134.585938 19.808594 134.804688 19.441406 C 135.054688 19.085938 135.324219 18.738281 135.597656 18.390625 C 136.148438 17.707031 136.707031 17.011719 137.257812 16.328125 C 138.417969 15.835938 139.1875 14.972656 139.90625 14.003906 C 140.609375 13.015625 141.460938 12.207031 142.480469 11.660156 C 146.8125 6.722656 153.03125 3.660156 159.265625 1.554688 C 159.910156 1.292969 160.640625 1.019531 161.292969 1.074219 C 165.789062 1.152344 170.101562 0.0351562 174.589844 0.195312 C 175.960938 0.261719 177.351562 0.132812 178.691406 0.375 C 180.03125 0.621094 181.351562 0.960938 182.574219 1.527344 C 182.996094 1.746094 183.816406 1.503906 184.429688 1.628906 C 185.738281 1.804688 187.136719 1.8125 188.390625 2.214844 C 195.5625 4.742188 202.097656 8.542969 208.222656 12.910156 C 210.082031 14.402344 211.136719 16.414062 213.34375 17.75 C 215.132812 19.0625 216.363281 21.320312 218.308594 22.707031 C 218.5625 22.894531 218.859375 23.183594 218.984375 23.453125 C 219.71875 25.242188 220.703125 26.757812 221.878906 28.121094 C 222.464844 28.800781 223.101562 29.441406 223.777344 30.058594 C 224.433594 30.691406 225.066406 31.34375 225.761719 31.953125 C 226.21875 32.363281 226.609375 33.007812 226.960938 33.582031 C 228.128906 35.542969 228.375 37.882812 230.417969 39.433594 C 232.09375 40.660156 232.128906 42.996094 233.5 44.453125 C 233.722656 44.691406 234.0625 45.003906 234.105469 45.230469 C 234.675781 48.960938 237.089844 51.886719 238.847656 55.085938 C 239.753906 56.808594 240.886719 58.285156 241.542969 60.292969 C 242.148438 62.03125 243.691406 63.523438 244.195312 65.554688 C 244.339844 66.136719 244.992188 66.707031 245.125 67.28125 C 246.1875 71.53125 247.929688 75.527344 249.558594 79.597656 C 251.375 84.675781 253.085938 89.792969 254.5625 94.976562 L 255.847656 99.34375 C 256.242188 100.808594 256.644531 102.265625 257.117188 103.695312 C 258.179688 106.894531 259.070312 110.144531 259.761719 113.4375 C 260.484375 116.726562 261.230469 120.003906 261.90625 123.296875 C 262.117188 124.28125 262.335938 125.316406 262.355469 126.28125 C 262.460938 130.136719 262.980469 133.933594 263.652344 137.722656 C 264.367188 141.503906 265.136719 145.285156 265.675781 149.089844 C 265.8125 150.046875 266.347656 150.941406 266.5625 151.910156 C 267.003906 153.816406 267.308594 155.757812 267.636719 157.6875 C 267.160156 160.996094 267.902344 164.285156 268.421875 167.601562 C 268.859375 170.589844 269.238281 173.59375 269.570312 176.59375 C 270.351562 183.949219 271.238281 191.28125 272.171875 198.613281 C 272.441406 200.703125 272.4375 202.714844 272.058594 204.546875 C 272.160156 205.636719 272.261719 206.707031 272.363281 207.804688 C 272.410156 208.339844 272.457031 208.847656 272.503906 209.378906 C 273.167969 209.933594 273.789062 210.597656 274.375 211.367188 C 274.886719 212.039062 275.308594 212.933594 275.222656 213.992188 C 275.113281 215.292969 274.976562 216.617188 274.703125 217.835938 C 274.398438 219.175781 274.523438 220.351562 274.945312 221.660156 C 275.253906 222.589844 275.171875 223.585938 274.910156 224.527344 C 274.566406 225.746094 274.585938 227.070312 274.824219 228.425781 C 275.109375 230.074219 275.441406 231.695312 276.089844 233.15625 C 276.015625 236.023438 277.597656 238.609375 276.832031 241.773438 C 276.066406 244.882812 277.136719 248.40625 277.9375 251.566406 C 278.414062 253.480469 279.191406 255.171875 278.964844 257.285156 C 278.921875 257.796875 279.257812 258.542969 279.519531 259.082031 C 280.238281 260.570312 280.589844 262.15625 280.574219 263.847656 C 280.574219 265.144531 280.253906 266.464844 280.484375 267.707031 C 280.710938 268.957031 281.453125 270.09375 281.8125 271.339844 C 282.457031 273.574219 282.863281 275.871094 282.714844 278.144531 C 282.546875 280.140625 283.070312 281.96875 283.890625 283.824219 C 284.738281 285.554688 285.429688 287.429688 286.210938 289.203125 C 286.839844 290.710938 287.140625 292.253906 287.507812 293.808594 C 287.875 295.355469 288.203125 296.960938 289.171875 298.355469 C 290.136719 299.644531 290.914062 301.050781 291.605469 302.515625 C 291.925781 303.261719 292.296875 303.980469 292.703125 304.675781 C 293.085938 305.390625 293.46875 306.101562 293.847656 306.808594 C 294.433594 307.898438 294.6875 309.179688 295.292969 310.257812 C 296.785156 311.179688 297.585938 312.480469 298.355469 313.867188 C 299.234375 315.140625 300.042969 316.539062 301.21875 317.632812 C 301.726562 318.152344 302.296875 318.609375 302.894531 319.042969 L 304.617188 320.410156 L 306.316406 321.8125 C 306.875 322.292969 307.53125 322.648438 308.128906 323.074219 C 309.21875 323.800781 310.539062 323.738281 311.410156 324.742188 C 311.914062 325.335938 311.609375 326.15625 312.765625 326.554688 C 313.914062 326.101562 314.898438 326.269531 316.1875 327.125 C 316.351562 327.117188 316.511719 327.097656 316.675781 327.089844 L 316.636719 327.417969 C 316.660156 327.4375 316.683594 327.445312 316.710938 327.464844 C 317.109375 327.769531 317.515625 328.0625 317.9375 328.34375 L 318.347656 328.613281 C 318.765625 328.898438 319.054688 329.363281 319.089844 329.910156 Z M 169.566406 35.882812 C 169.566406 39.5 172.496094 42.433594 176.113281 42.433594 C 179.730469 42.433594 182.664062 39.5 182.664062 35.882812 C 182.664062 32.269531 179.730469 29.335938 176.113281 29.335938 C 172.496094 29.335938 169.566406 32.269531 169.566406 35.882812 Z M 201.078125 291.179688 C 201.066406 290.730469 201.066406 290.277344 201.058594 289.828125 C 200.953125 290.3125 200.945312 290.839844 201.078125 291.179688 Z M 203.574219 313.96875 C 203.460938 313.410156 203.347656 312.847656 203.238281 312.269531 C 203.222656 312.738281 203.34375 313.335938 203.488281 313.789062 C 203.511719 313.851562 203.550781 313.90625 203.574219 313.96875 Z M 180.167969 358.734375 C 180.082031 358.492188 179.996094 358.253906 179.949219 358.058594 C 179.8125 358.132812 179.667969 358.203125 179.527344 358.277344 C 179.71875 358.507812 179.910156 358.6875 180.09375 358.804688 C 180.101562 358.796875 180.109375 358.792969 180.113281 358.785156 L 180.113281 358.773438 L 180.121094 358.777344 C 180.136719 358.765625 180.148438 358.746094 180.167969 358.734375 Z M 198.050781 364.269531 C 197.960938 364.328125 197.871094 364.390625 197.78125 364.449219 C 197.960938 364.511719 198.09375 364.46875 198.050781 364.269531 Z M 201.988281 361.597656 C 201.902344 361.65625 201.8125 361.71875 201.726562 361.78125 C 201.835938 361.78125 201.929688 361.742188 201.980469 361.65625 C 201.988281 361.644531 201.984375 361.613281 201.988281 361.597656 Z M 113.816406 233.53125 L 113.945312 233.488281 C 113.917969 233.480469 113.878906 233.472656 113.851562 233.464844 L 113.671875 233.507812 C 113.714844 233.515625 113.769531 233.523438 113.816406 233.53125 Z M 110.175781 236.46875 C 109.804688 237.15625 109.738281 237.882812 109.769531 238.617188 C 109.789062 239.34375 110.054688 240.09375 110.214844 240.828125 C 111.300781 241.257812 110.226562 241.523438 109.992188 241.859375 C 109.847656 242.058594 109.824219 242.058594 111.988281 242.246094 C 112.289062 242.269531 112.824219 242.328125 112.828125 242.347656 C 112.859375 242.480469 113.019531 242.671875 112.667969 242.71875 C 111.390625 242.890625 109.886719 243.011719 109.921875 243.433594 C 109.949219 243.796875 109.921875 244.160156 109.992188 244.523438 C 110.027344 244.722656 110.578125 244.820312 111.410156 244.800781 C 112.238281 244.777344 112.996094 244.835938 113.183594 244.992188 C 113.335938 245.117188 113.289062 245.308594 112.914062 245.359375 C 111.632812 245.535156 109.765625 245.609375 110.949219 246.121094 C 110.554688 246.667969 110.535156 247.234375 111.265625 247.824219 C 111.5 248.011719 111.070312 248.28125 110.429688 248.402344 C 108.5 248.765625 108.234375 249.171875 109.347656 249.75 C 110.125 250.152344 109.820312 250.625 109.886719 251.0625 C 110.023438 251.941406 109.742188 252.828125 110.300781 253.691406 C 110.636719 254.203125 110.761719 254.664062 110.09375 255.160156 C 109.699219 255.457031 110.316406 255.734375 110.9375 255.992188 C 111.277344 256.132812 111.070312 256.253906 110.316406 256.363281 C 108.082031 256.679688 108.417969 257.144531 108.429688 257.578125 C 108.441406 257.902344 109.1875 258.125 110.648438 258.207031 C 111.59375 258.261719 111.777344 258.363281 111.097656 258.53125 C 109.523438 258.910156 108.523438 259.292969 109.792969 259.742188 C 110.207031 259.890625 109.730469 260.167969 109.628906 260.386719 C 109.457031 260.757812 109.445312 260.769531 110.882812 260.828125 C 112.191406 260.886719 113.507812 260.9375 114.875 260.949219 C 115.511719 260.957031 116.359375 260.902344 116.953125 260.816406 C 117.078125 260.800781 117.21875 260.773438 117.355469 260.746094 C 117.796875 260.660156 118.214844 260.539062 118.164062 260.476562 C 117.964844 260.222656 117.671875 259.980469 117.3125 259.738281 C 116.824219 259.414062 116.207031 259.101562 115.410156 258.796875 C 114.925781 258.613281 114.484375 258.402344 115.035156 258.210938 C 116.289062 257.777344 116.636719 257.40625 115.253906 257.027344 C 115.101562 256.988281 115.136719 256.890625 115.285156 256.835938 C 116.257812 256.484375 116.191406 256.171875 115.277344 255.839844 C 114.554688 255.578125 115.777344 255.492188 116.683594 255.382812 C 117.023438 255.339844 117.15625 255.300781 117.195312 255.261719 C 117.210938 255.246094 117.222656 255.226562 117.195312 255.210938 C 117.125 255.164062 116.921875 255.113281 116.582031 255.058594 C 114.910156 254.785156 114.96875 254.769531 116.109375 254.414062 C 116.480469 254.296875 116.894531 254.183594 117.1875 254.0625 C 117.195312 254.0625 117.203125 254.058594 117.210938 254.058594 C 117.273438 254.027344 117.246094 253.984375 117.1875 253.945312 C 117.148438 253.917969 117.105469 253.890625 117.03125 253.882812 C 114.863281 253.640625 115.09375 253.414062 117.140625 253.214844 C 117.164062 252.992188 117.0625 252.761719 117.199219 252.542969 C 117.222656 252.503906 117.234375 252.46875 117.273438 252.433594 C 117.546875 252.183594 117.609375 251.945312 117.226562 251.710938 C 117.171875 251.679688 117.140625 251.644531 117.070312 251.613281 C 115.863281 251.058594 115.46875 250.515625 117.035156 250.003906 C 117.136719 249.96875 117.210938 249.933594 117.28125 249.894531 C 117.546875 249.75 117.609375 249.574219 117.679688 249.414062 C 117.984375 248.730469 117.925781 248.023438 119.203125 247.410156 C 119.546875 247.246094 119.433594 247 119.09375 246.800781 C 118.242188 246.292969 117.988281 245.800781 117.976562 245.304688 C 117.960938 244.671875 117.835938 244.035156 117.726562 243.394531 C 117.644531 242.894531 117.855469 242.414062 118.789062 242.011719 C 119.265625 241.808594 118.816406 241.601562 118.140625 241.394531 C 118.042969 241.363281 117.960938 241.335938 117.875 241.308594 C 116.847656 240.964844 116.617188 240.667969 117.585938 240.40625 C 117.730469 240.367188 117.835938 240.324219 117.964844 240.28125 C 118.480469 240.117188 118.921875 239.941406 119.238281 239.75 C 119.535156 239.574219 119.394531 239.320312 118.449219 239.125 C 118.320312 239.097656 118.195312 239.070312 118.074219 239.042969 C 116.902344 238.789062 116.1875 238.535156 117.609375 238.429688 C 117.828125 238.414062 117.984375 238.390625 118.132812 238.367188 C 119.496094 238.148438 118.289062 237.640625 119.085938 237.386719 C 120.15625 237.050781 118.617188 236.523438 119.09375 236.15625 C 119.398438 235.925781 118.894531 235.667969 118.398438 235.40625 C 118.308594 235.363281 118.21875 235.316406 118.136719 235.269531 C 117.296875 234.804688 116.449219 234.335938 115.4375 233.871094 C 115.1875 233.753906 114.410156 233.644531 113.820312 233.535156 C 112.988281 233.832031 111.894531 234.097656 111.507812 234.457031 C 110.828125 235.09375 110.546875 235.789062 110.175781 236.46875 Z M 110.175781 236.46875 " fill-opacity="1" fill-rule="nonzero"/></g></svg>